<svg xmlns="http://www.w3.org/2000/svg" width="253" height="55" fill="none"><g id="Frame 2" clip-path="url(#clip0_6_2)"><path id="A" fill="#F13131" d="M12.43 39.71C10.1567 39.71 8.15833 39.4717 6.435 38.995C4.71167 38.5183 3.48333 37.9867 2.75 37.4C0.916667 35.97 0 34.32 0 32.45C0 30.8733 0.678333 29.2967 2.035 27.72C3.42833 26.1067 5.53667 24.64 8.36 23.32C11.1833 21.9633 14.74 20.9 19.03 20.13C20.8633 19.8 22.715 19.5433 24.585 19.36C26.4917 19.1767 28.3983 19.085 30.305 19.085C31.9183 19.085 33.5317 19.1583 35.145 19.305C36.795 19.4517 38.4083 19.69 39.985 20.02C40.4983 20.13 41.085 20.2767 41.745 20.46C42.405 20.6067 43.0833 20.79 43.78 21.01C46.8233 17.8933 49.7933 14.795 52.69 11.715C55.5867 8.635 58.3917 6.03167 61.105 3.905C63.0117 2.40167 64.79 1.375 66.44 0.824999C68.09 0.274999 69.5567 0 70.84 0C72.3433 0 73.5717 0.238333 74.525 0.715C75.515 1.155 76.1567 1.52167 76.45 1.815C76.56 1.925 76.56 2.035 76.45 2.145C76.34 2.255 76.23 2.255 76.12 2.145C75.9367 1.925 75.4967 1.68667 74.8 1.43C74.1033 1.17333 73.205 1.045 72.105 1.045C70.7483 1.045 69.1533 1.35667 67.32 1.98C65.4867 2.60333 63.4517 3.77667 61.215 5.5C58.465 7.66334 55.7333 10.1567 53.02 12.98C50.3433 15.7667 47.6117 18.5717 44.825 21.395C46.255 21.9083 47.5567 22.605 48.73 23.485C49.94 24.365 50.6367 25.4467 50.82 26.73V26.95C50.82 27.0967 50.7833 27.17 50.71 27.17C50.6 27.17 50.49 27.06 50.38 26.84C50.2333 26.4367 49.8117 26.0883 49.115 25.795C48.455 25.5017 47.685 25.2633 46.805 25.08C45.925 24.8967 45.0817 24.75 44.275 24.64C43.4683 24.53 42.8633 24.4567 42.46 24.42L41.855 24.365C38.8117 27.2983 35.6583 30.0117 32.395 32.505C29.1683 34.9617 25.74 36.8133 22.11 38.06C20.3867 38.6467 18.7 39.0683 17.05 39.325C15.4367 39.5817 13.8967 39.71 12.43 39.71ZM54.945 42.405C53.295 41.2317 52.085 39.82 51.315 38.17C50.545 36.52 50.16 34.7417 50.16 32.835C50.16 30.9283 50.49 29.0217 51.15 27.115C51.81 25.1717 52.7633 23.155 54.01 21.065C55.2933 18.975 56.6867 16.94 58.19 14.96C59.6933 12.9433 61.1417 11.11 62.535 9.46C63.965 7.77333 65.1567 6.38 66.11 5.28C67.1 4.18 67.6867 3.50167 67.87 3.245C68.09 2.95167 68.255 2.805 68.365 2.805C68.5117 2.805 68.6217 2.93333 68.695 3.19C68.7683 3.41 68.805 3.66667 68.805 3.96C68.805 4.54667 68.7133 4.96833 68.53 5.225C67.5767 6.435 66.44 7.975 65.12 9.845C63.8 11.715 62.4617 13.805 61.105 16.115C59.7483 18.3883 58.4833 20.735 57.31 23.155C56.1367 25.575 55.1833 27.94 54.45 30.25C53.7533 32.56 53.405 34.6683 53.405 36.575C53.405 37.675 53.5517 38.6833 53.845 39.6C54.1383 40.5167 54.615 41.3233 55.275 42.02C55.3117 42.0567 55.33 42.1117 55.33 42.185C55.33 42.2583 55.2933 42.3317 55.22 42.405C55.1467 42.4783 55.055 42.4783 54.945 42.405ZM12.595 38.775C13.9517 38.775 15.4183 38.6467 16.995 38.39C18.5717 38.17 20.2033 37.8033 21.89 37.29C25.0433 36.3 28.1783 34.6133 31.295 32.23C34.4117 29.8467 37.4733 27.1883 40.48 24.255C40.0033 24.2183 39.5267 24.2 39.05 24.2C38.5733 24.2 38.0783 24.2 37.565 24.2C34.9983 24.2 32.3217 24.3283 29.535 24.585C26.785 24.8417 24.1633 25.2083 21.67 25.685C17.6367 26.3817 14.3367 27.2617 11.77 28.325C9.24 29.3517 7.37 30.4333 6.16 31.57C4.98667 32.7067 4.4 33.7883 4.4 34.815C4.4 35.805 4.895 36.6667 5.885 37.4C6.39833 37.7667 7.24167 38.0783 8.415 38.335C9.58833 38.6283 10.9817 38.775 12.595 38.775Z"/><g id="sTra | Пахавальнае Бюро"><path id="Vector" fill="white" d="M248.336 38.1641C247.555 38.1641 246.88 37.9818 246.312 37.6172C245.75 37.2474 245.315 36.7396 245.008 36.0938C244.701 35.4427 244.547 34.7005 244.547 33.8672V33.6953C244.547 32.862 244.701 32.1224 245.008 31.4766C245.315 30.8255 245.75 30.3151 246.312 29.9453C246.88 29.5755 247.549 29.3906 248.32 29.3906C249.102 29.3906 249.773 29.5755 250.336 29.9453C250.904 30.3151 251.341 30.8229 251.648 31.4688C251.956 32.1146 252.109 32.8568 252.109 33.6953V33.8672C252.109 34.7057 251.956 35.4505 251.648 36.1016C251.341 36.7474 250.906 37.2526 250.344 37.6172C249.781 37.9818 249.112 38.1641 248.336 38.1641ZM248.336 36.9609C248.826 36.9609 249.234 36.8281 249.562 36.5625C249.896 36.2917 250.146 35.9245 250.312 35.4609C250.484 34.9922 250.57 34.4609 250.57 33.8672V33.6953C250.57 33.1016 250.484 32.5729 250.312 32.1094C250.146 31.6406 249.896 31.2734 249.562 31.0078C249.229 30.737 248.815 30.6016 248.32 30.6016C247.831 30.6016 247.419 30.737 247.086 31.0078C246.753 31.2734 246.503 31.6406 246.336 32.1094C246.169 32.5729 246.086 33.1016 246.086 33.6953V33.8672C246.086 34.4609 246.169 34.9922 246.336 35.4609C246.503 35.9245 246.753 36.2917 247.086 36.5625C247.424 36.8281 247.841 36.9609 248.336 36.9609Z"/><path id="Vector_2" fill="white" d="M234.281 41.25V40.2578L235.477 40.0391V30.7578L234.203 30.5391V29.5469H236.797L236.938 30.5781C237.219 30.1927 237.56 29.8984 237.961 29.6953C238.367 29.4922 238.836 29.3906 239.367 29.3906C240.065 29.3906 240.661 29.5807 241.156 29.9609C241.651 30.3359 242.029 30.8646 242.289 31.5469C242.549 32.224 242.68 33.0182 242.68 33.9297V34.0938C242.68 34.9062 242.547 35.6172 242.281 36.2266C242.021 36.8359 241.646 37.3125 241.156 37.6562C240.667 37.9948 240.078 38.1641 239.391 38.1641C238.87 38.1641 238.411 38.0781 238.016 37.9062C237.625 37.7292 237.292 37.4688 237.016 37.125V40.0391L238.359 40.2578V41.25H234.281ZM238.914 36.9609C239.643 36.9609 240.195 36.6953 240.57 36.1641C240.945 35.6328 241.133 34.9427 241.133 34.0938V33.9297C241.133 33.2839 241.049 32.7161 240.883 32.2266C240.716 31.7318 240.466 31.3438 240.133 31.0625C239.805 30.7812 239.393 30.6406 238.898 30.6406C238.461 30.6406 238.086 30.7396 237.773 30.9375C237.461 31.1354 237.208 31.4062 237.016 31.75V35.8672C237.208 36.2161 237.458 36.487 237.766 36.6797C238.078 36.8672 238.461 36.9609 238.914 36.9609Z"/><path id="Vector_3" fill="white" d="M229.328 38.1641C228.599 38.1641 227.961 38.0026 227.414 37.6797C226.867 37.3568 226.435 36.9062 226.117 36.3281C225.799 35.75 225.612 35.0807 225.555 34.3203H223.492V36.7969L224.766 37.0156V38H220.68V37.0156L221.953 36.7969V30.7578L220.68 30.5391V29.5469H223.492V33.1172H225.562C225.635 32.3776 225.833 31.7292 226.156 31.1719C226.479 30.6146 226.909 30.1797 227.445 29.8672C227.982 29.5495 228.604 29.3906 229.312 29.3906C230.094 29.3906 230.766 29.5755 231.328 29.9453C231.896 30.3151 232.333 30.8229 232.641 31.4688C232.948 32.1146 233.102 32.8568 233.102 33.6953V33.8672C233.102 34.7057 232.948 35.4505 232.641 36.1016C232.333 36.7474 231.898 37.2526 231.336 37.6172C230.773 37.9818 230.104 38.1641 229.328 38.1641ZM229.328 36.9609C229.818 36.9609 230.227 36.8281 230.555 36.5625C230.888 36.2917 231.138 35.9245 231.305 35.4609C231.477 34.9922 231.562 34.4609 231.562 33.8672V33.6953C231.562 33.1016 231.477 32.5729 231.305 32.1094C231.138 31.6406 230.888 31.2734 230.555 31.0078C230.221 30.737 229.807 30.6016 229.312 30.6016C228.823 30.6016 228.411 30.737 228.078 31.0078C227.745 31.2734 227.495 31.6406 227.328 32.1094C227.161 32.5729 227.078 33.1016 227.078 33.6953V33.8672C227.078 34.4609 227.161 34.9922 227.328 35.4609C227.495 35.9245 227.745 36.2917 228.078 36.5625C228.417 36.8281 228.833 36.9609 229.328 36.9609Z"/><path id="Vector_4" fill="white" d="M209.984 38V37.0156L211.258 36.7969V27.8359L209.984 27.6172V26.625H218.234V29.1406H216.914L216.797 27.8359H212.875V31.2812H215.68C216.492 31.2812 217.182 31.4167 217.75 31.6875C218.323 31.9583 218.76 32.3438 219.062 32.8438C219.365 33.3385 219.516 33.9271 219.516 34.6094C219.516 35.2917 219.365 35.888 219.062 36.3984C218.76 36.9089 218.323 37.3047 217.75 37.5859C217.182 37.862 216.492 38 215.68 38H209.984ZM212.875 36.7969H215.68C216.451 36.7969 217.026 36.5885 217.406 36.1719C217.786 35.7552 217.977 35.2292 217.977 34.5938C217.977 33.9792 217.786 33.4766 217.406 33.0859C217.026 32.6901 216.451 32.4922 215.68 32.4922H212.875V36.7969Z"/><path id="Vector_5" fill="white" d="M201.68 38.1641C200.898 38.1641 200.219 37.987 199.641 37.6328C199.062 37.2734 198.615 36.776 198.297 36.1406C197.984 35.5052 197.828 34.7708 197.828 33.9375V33.5938C197.828 32.7917 197.992 32.0755 198.32 31.4453C198.654 30.8099 199.094 30.3099 199.641 29.9453C200.193 29.5755 200.794 29.3906 201.445 29.3906C202.206 29.3906 202.841 29.5469 203.352 29.8594C203.867 30.1719 204.255 30.612 204.516 31.1797C204.776 31.7422 204.906 32.4062 204.906 33.1719V34.1328H199.422L199.398 34.1719C199.409 34.7135 199.503 35.1953 199.68 35.6172C199.862 36.0339 200.122 36.362 200.461 36.6016C200.799 36.8411 201.206 36.9609 201.68 36.9609C202.201 36.9609 202.656 36.888 203.047 36.7422C203.443 36.5911 203.784 36.3854 204.07 36.125L204.672 37.125C204.37 37.4167 203.969 37.6641 203.469 37.8672C202.974 38.0651 202.378 38.1641 201.68 38.1641ZM199.469 32.9297H203.367V32.7266C203.367 32.3203 203.294 31.9583 203.148 31.6406C203.008 31.3177 202.794 31.0651 202.508 30.8828C202.227 30.6953 201.872 30.6016 201.445 30.6016C201.102 30.6016 200.789 30.7031 200.508 30.9062C200.227 31.1042 199.995 31.375 199.812 31.7188C199.63 32.0625 199.51 32.4531 199.453 32.8906L199.469 32.9297Z"/><path id="Vector_6" fill="white" d="M191.719 38.1641C190.839 38.1641 190.169 37.9505 189.711 37.5234C189.253 37.0911 189.023 36.4844 189.023 35.7031C189.023 34.901 189.352 34.2578 190.008 33.7734C190.664 33.2839 191.576 33.0391 192.742 33.0391H194.25V32.2109C194.25 31.7005 194.094 31.3047 193.781 31.0234C193.474 30.7422 193.039 30.6016 192.477 30.6016C192.122 30.6016 191.815 30.6458 191.555 30.7344C191.294 30.8177 191.057 30.9349 190.844 31.0859L190.68 32.2656H189.492V30.3281C189.872 30.0208 190.315 29.7891 190.82 29.6328C191.326 29.4714 191.885 29.3906 192.5 29.3906C193.526 29.3906 194.331 29.6354 194.914 30.125C195.497 30.6146 195.789 31.3151 195.789 32.2266V36.2969C195.789 36.4062 195.789 36.513 195.789 36.6172C195.794 36.7214 195.802 36.8255 195.812 36.9297L196.633 37.0156V38H194.422C194.375 37.7708 194.339 37.5651 194.312 37.3828C194.286 37.2005 194.268 37.0182 194.258 36.8359C193.961 37.2161 193.589 37.5339 193.141 37.7891C192.698 38.0391 192.224 38.1641 191.719 38.1641ZM191.945 36.875C192.456 36.875 192.922 36.7526 193.344 36.5078C193.766 36.263 194.068 35.9688 194.25 35.625V34.0938H192.688C191.979 34.0938 191.448 34.263 191.094 34.6016C190.74 34.9401 190.562 35.3177 190.562 35.7344C190.562 36.1042 190.677 36.388 190.906 36.5859C191.135 36.7786 191.482 36.875 191.945 36.875Z"/><path id="Vector_7" fill="white" d="M178.258 38V37.0156L179.531 36.7969V30.7578L178.258 30.5391V29.5469H182.344V30.5391L181.07 30.7578V33.2031H184.828V30.7578L183.555 30.5391V29.5469H184.828H186.375H187.648V30.5391L186.375 30.7578V36.7969L187.648 37.0156V38H183.555V37.0156L184.828 36.7969V34.4062H181.07V36.7969L182.344 37.0156V38H178.258Z"/><path id="Vector_8" fill="white" d="M173.695 32.4531C174.695 32.4531 175.474 32.7083 176.031 33.2188C176.589 33.724 176.867 34.3828 176.867 35.1953C176.867 36.013 176.586 36.6849 176.023 37.2109C175.466 37.737 174.69 38 173.695 38H168.789V37.0156L170.062 36.7969V30.7578L168.789 30.5391V29.5469H172.875V30.5391L171.602 30.7578V32.4531H173.695ZM173.695 36.7969C174.253 36.7969 174.661 36.651 174.922 36.3594C175.188 36.0625 175.32 35.6927 175.32 35.25C175.32 34.8229 175.188 34.4505 174.922 34.1328C174.656 33.8151 174.247 33.6562 173.695 33.6562H171.602V36.7969H173.695Z"/><path id="Vector_9" fill="white" d="M158.289 38L158.312 36.6875L158.633 36.6797C159.003 36.6797 159.294 36.5651 159.508 36.3359C159.721 36.1016 159.875 35.7266 159.969 35.2109C160.062 34.6901 160.109 34.0052 160.109 33.1562V30.7578L158.836 30.5391V29.5469H166.055H167.328V30.5391L166.055 30.7578V36.7969L167.328 37.0156V38H163.242V37.0156L164.516 36.7969V30.7656H161.648V33.1562C161.648 34.8229 161.427 36.0469 160.984 36.8281C160.547 37.6094 159.794 38 158.727 38H158.289Z"/><path id="Vector_10" fill="white" d="M152.219 38.1641C151.339 38.1641 150.669 37.9505 150.211 37.5234C149.753 37.0911 149.523 36.4844 149.523 35.7031C149.523 34.901 149.852 34.2578 150.508 33.7734C151.164 33.2839 152.076 33.0391 153.242 33.0391H154.75V32.2109C154.75 31.7005 154.594 31.3047 154.281 31.0234C153.974 30.7422 153.539 30.6016 152.977 30.6016C152.622 30.6016 152.315 30.6458 152.055 30.7344C151.794 30.8177 151.557 30.9349 151.344 31.0859L151.18 32.2656H149.992V30.3281C150.372 30.0208 150.815 29.7891 151.32 29.6328C151.826 29.4714 152.385 29.3906 153 29.3906C154.026 29.3906 154.831 29.6354 155.414 30.125C155.997 30.6146 156.289 31.3151 156.289 32.2266V36.2969C156.289 36.4062 156.289 36.513 156.289 36.6172C156.294 36.7214 156.302 36.8255 156.312 36.9297L157.133 37.0156V38H154.922C154.875 37.7708 154.839 37.5651 154.812 37.3828C154.786 37.2005 154.768 37.0182 154.758 36.8359C154.461 37.2161 154.089 37.5339 153.641 37.7891C153.198 38.0391 152.724 38.1641 152.219 38.1641ZM152.445 36.875C152.956 36.875 153.422 36.7526 153.844 36.5078C154.266 36.263 154.568 35.9688 154.75 35.625V34.0938H153.188C152.479 34.0938 151.948 34.263 151.594 34.6016C151.24 34.9401 151.062 35.3177 151.062 35.7344C151.062 36.1042 151.177 36.388 151.406 36.5859C151.635 36.7786 151.982 36.875 152.445 36.875Z"/><path id="Vector_11" fill="white" d="M139.727 38V37.0156L141 36.7969V30.7578L139.727 30.5391V29.5469H141H144.328C145.443 29.5469 146.307 29.7422 146.922 30.1328C147.536 30.5182 147.844 31.099 147.844 31.875C147.844 32.2708 147.724 32.625 147.484 32.9375C147.245 33.2448 146.906 33.4792 146.469 33.6406C146.995 33.7708 147.406 34.0156 147.703 34.375C148 34.7292 148.148 35.1354 148.148 35.5938C148.148 36.3854 147.859 36.9844 147.281 37.3906C146.708 37.7969 145.904 38 144.867 38H139.727ZM142.539 36.8125H144.867C145.44 36.8125 145.872 36.7057 146.164 36.4922C146.456 36.2734 146.602 35.9609 146.602 35.5547C146.602 35.1536 146.456 34.8438 146.164 34.625C145.872 34.4062 145.44 34.2969 144.867 34.2969H142.539V36.8125ZM142.539 33.1172H144.336C144.987 33.1172 145.477 33.0208 145.805 32.8281C146.138 32.6354 146.305 32.3438 146.305 31.9531C146.305 31.1458 145.646 30.7422 144.328 30.7422H142.539V33.1172Z"/><path id="Vector_12" fill="white" d="M133.438 38.1641C132.557 38.1641 131.888 37.9505 131.43 37.5234C130.971 37.0911 130.742 36.4844 130.742 35.7031C130.742 34.901 131.07 34.2578 131.727 33.7734C132.383 33.2839 133.294 33.0391 134.461 33.0391H135.969V32.2109C135.969 31.7005 135.812 31.3047 135.5 31.0234C135.193 30.7422 134.758 30.6016 134.195 30.6016C133.841 30.6016 133.534 30.6458 133.273 30.7344C133.013 30.8177 132.776 30.9349 132.562 31.0859L132.398 32.2656H131.211V30.3281C131.591 30.0208 132.034 29.7891 132.539 29.6328C133.044 29.4714 133.604 29.3906 134.219 29.3906C135.245 29.3906 136.049 29.6354 136.633 30.125C137.216 30.6146 137.508 31.3151 137.508 32.2266V36.2969C137.508 36.4062 137.508 36.513 137.508 36.6172C137.513 36.7214 137.521 36.8255 137.531 36.9297L138.352 37.0156V38H136.141C136.094 37.7708 136.057 37.5651 136.031 37.3828C136.005 37.2005 135.987 37.0182 135.977 36.8359C135.68 37.2161 135.307 37.5339 134.859 37.7891C134.417 38.0391 133.943 38.1641 133.438 38.1641ZM133.664 36.875C134.174 36.875 134.641 36.7526 135.062 36.5078C135.484 36.263 135.786 35.9688 135.969 35.625V34.0938H134.406C133.698 34.0938 133.167 34.263 132.812 34.6016C132.458 34.9401 132.281 35.3177 132.281 35.7344C132.281 36.1042 132.396 36.388 132.625 36.5859C132.854 36.7786 133.201 36.875 133.664 36.875Z"/><path id="Vector_13" fill="white" d="M121.047 38V37.0156L121.984 36.8359L124.508 33.7266L122.039 30.7188L121.203 30.5391V29.5469H124.516V30.5391L123.672 30.6328L125.406 32.7891L127.094 30.625L126.188 30.5391V29.5469H129.445V30.5391L128.586 30.7188L126.297 33.7031L128.93 36.8359L129.805 37.0156V38H126.219V37.0156L127.234 36.9297L125.383 34.6719L123.586 36.9297L124.5 37.0156V38H121.047Z"/><path id="Vector_14" fill="white" d="M115.188 38.1641C114.307 38.1641 113.638 37.9505 113.18 37.5234C112.721 37.0911 112.492 36.4844 112.492 35.7031C112.492 34.901 112.82 34.2578 113.477 33.7734C114.133 33.2839 115.044 33.0391 116.211 33.0391H117.719V32.2109C117.719 31.7005 117.562 31.3047 117.25 31.0234C116.943 30.7422 116.508 30.6016 115.945 30.6016C115.591 30.6016 115.284 30.6458 115.023 30.7344C114.763 30.8177 114.526 30.9349 114.312 31.0859L114.148 32.2656H112.961V30.3281C113.341 30.0208 113.784 29.7891 114.289 29.6328C114.794 29.4714 115.354 29.3906 115.969 29.3906C116.995 29.3906 117.799 29.6354 118.383 30.125C118.966 30.6146 119.258 31.3151 119.258 32.2266V36.2969C119.258 36.4062 119.258 36.513 119.258 36.6172C119.263 36.7214 119.271 36.8255 119.281 36.9297L120.102 37.0156V38H117.891C117.844 37.7708 117.807 37.5651 117.781 37.3828C117.755 37.2005 117.737 37.0182 117.727 36.8359C117.43 37.2161 117.057 37.5339 116.609 37.7891C116.167 38.0391 115.693 38.1641 115.188 38.1641ZM115.414 36.875C115.924 36.875 116.391 36.7526 116.812 36.5078C117.234 36.263 117.536 35.9688 117.719 35.625V34.0938H116.156C115.448 34.0938 114.917 34.263 114.562 34.6016C114.208 34.9401 114.031 35.3177 114.031 35.7344C114.031 36.1042 114.146 36.388 114.375 36.5859C114.604 36.7786 114.951 36.875 115.414 36.875Z"/><path id="Vector_15" fill="white" d="M100.164 38V37.0156L101.438 36.7969V27.8359L100.164 27.6172V26.625H111.32V27.6172L110.047 27.8359V36.7969L111.32 37.0156V38H107.234V37.0156L108.508 36.7969V27.8359H102.977V36.7969L104.25 37.0156V38H100.164Z"/><path id="Vector_16" fill="white" d="M93.2188 40.1094V26.625H94.4453V40.1094H93.2188Z"/><path id="Vector_17" fill="white" d="M84.9322 34.4C84.4402 34.22 83.8702 34.13 83.2222 34.13C82.5862 34.13 82.1242 34.232 81.8362 34.436C81.6562 34.712 81.5662 35.084 81.5662 35.552C81.5662 36.008 81.6922 36.368 81.9442 36.632C82.1962 36.896 82.5082 37.028 82.8802 37.028C83.2642 37.028 83.6542 36.932 84.0502 36.74C84.4462 36.536 84.7402 36.32 84.9322 36.092V34.4ZM85.2202 36.992C84.4882 37.796 83.6602 38.198 82.7362 38.198C81.8242 38.198 81.1042 38 80.5762 37.604C80.0602 37.208 79.8022 36.572 79.8022 35.696C79.8022 34.808 80.1082 34.172 80.7202 33.788C81.3442 33.404 82.2202 33.212 83.3482 33.212L84.9322 33.266V32.24C84.9322 31.604 84.7762 31.088 84.4642 30.692C84.1522 30.296 83.6782 30.098 83.0422 30.098C82.5742 30.11 81.8242 30.56 80.7922 31.448C80.4442 31.004 80.1982 30.428 80.0542 29.72C81.2422 29.336 82.3342 29.144 83.3302 29.144C84.3262 29.144 85.1242 29.402 85.7242 29.918C86.3242 30.434 86.6242 31.166 86.6242 32.114V35.138C86.6362 35.678 86.7202 36.182 86.8762 36.65C87.0442 37.106 87.2602 37.424 87.5242 37.604L87.5602 37.784L85.6342 38.252C85.4782 37.868 85.3402 37.448 85.2202 36.992Z"/><path id="Vector_18" fill="white" d="M78.291 29.144C78.663 29.144 78.9391 29.186 79.1191 29.27C79.1191 29.342 79.1191 29.414 79.1191 29.486C79.1191 30.194 79.0111 30.836 78.7951 31.412C78.2551 31.064 77.6431 30.89 76.9591 30.89C76.5871 30.89 76.2151 30.956 75.8431 31.088V34.94C75.8431 36.104 76.0171 37.082 76.3651 37.874V38H73.8451V37.874C74.0491 37.274 74.1511 36.476 74.1511 35.48V32.42C74.1511 31.904 74.0431 31.4 73.8271 30.908C73.6231 30.404 73.383 30.068 73.107 29.9L73.0891 29.684L75.2131 29.126C75.4051 29.45 75.5611 29.828 75.6811 30.26C76.4011 29.516 77.271 29.144 78.291 29.144Z"/><path id="Vector_19" fill="white" d="M64.0641 26.948C64.0641 26.408 64.0341 25.874 63.9741 25.346C66.3861 25.382 67.9341 25.4 68.6181 25.4C69.3141 25.4 70.8681 25.382 73.2801 25.346C73.1961 26.078 73.1541 26.612 73.1541 26.948H73.0281C71.6961 26.612 70.5621 26.432 69.6261 26.408C69.5661 27.032 69.5361 27.998 69.5361 29.306V34.256C69.5361 35.876 69.6261 37.082 69.8061 37.874V38H67.4481V37.874C67.6041 37.094 67.6821 35.912 67.6821 34.328V29.378C67.6821 28.022 67.6521 27.032 67.5921 26.408C66.6801 26.432 65.5461 26.612 64.1901 26.948H64.0641Z"/><path id="Vector_20" fill="white" d="M58.898 30.278C58.682 30.494 58.574 30.794 58.574 31.178C58.574 31.55 58.694 31.844 58.934 32.06C59.174 32.264 59.474 32.414 59.834 32.51C60.206 32.606 60.602 32.726 61.022 32.87C61.442 33.014 61.832 33.17 62.192 33.338C62.564 33.494 62.87 33.752 63.11 34.112C63.35 34.472 63.47 34.91 63.47 35.426C63.47 36.338 63.134 37.028 62.462 37.496C61.79 37.964 60.902 38.198 59.798 38.198C58.706 38.198 57.734 37.916 56.882 37.352C56.918 36.74 57.098 36.194 57.422 35.714C58.502 36.698 59.486 37.19 60.374 37.19C60.758 37.19 61.1 37.112 61.4 36.956C61.688 36.704 61.832 36.368 61.832 35.948C61.832 35.516 61.664 35.186 61.328 34.958C61.004 34.718 60.608 34.532 60.14 34.4C59.672 34.268 59.204 34.118 58.736 33.95C58.268 33.782 57.866 33.518 57.53 33.158C57.206 32.798 57.044 32.33 57.044 31.754C57.044 30.914 57.356 30.272 57.98 29.828C58.616 29.372 59.414 29.144 60.374 29.144C61.334 29.144 62.276 29.348 63.2 29.756C63.092 30.284 62.882 30.812 62.57 31.34C61.718 30.488 60.83 30.062 59.906 30.062C59.51 30.062 59.174 30.134 58.898 30.278Z"/></g><g id="Мы побач, калі неабходна"><path id="Vector_21" fill="white" d="M205.413 52.1333C204.698 52.1333 204.154 51.9598 203.782 51.6128C203.409 51.2616 203.223 50.7686 203.223 50.1338C203.223 49.4821 203.49 48.9595 204.023 48.5659C204.556 48.1681 205.297 47.9692 206.245 47.9692H207.47V47.2964C207.47 46.8817 207.343 46.5601 207.089 46.3315C206.839 46.103 206.486 45.9888 206.029 45.9888C205.741 45.9888 205.491 46.0247 205.28 46.0967C205.068 46.1644 204.876 46.2596 204.702 46.3823L204.569 47.3408H203.604V45.7666C203.913 45.5169 204.273 45.3286 204.683 45.2017C205.094 45.0705 205.549 45.0049 206.048 45.0049C206.882 45.0049 207.535 45.2038 208.009 45.6016C208.483 45.9993 208.72 46.5685 208.72 47.3091V50.6162C208.72 50.7051 208.72 50.7918 208.72 50.8765C208.724 50.9611 208.731 51.0457 208.739 51.1304L209.406 51.2002V52H207.609C207.571 51.8138 207.542 51.6466 207.521 51.4985C207.499 51.3504 207.485 51.2023 207.476 51.0542C207.235 51.3631 206.932 51.6213 206.568 51.8286C206.209 52.0317 205.824 52.1333 205.413 52.1333ZM205.597 51.0859C206.012 51.0859 206.391 50.9865 206.733 50.7876C207.076 50.5887 207.322 50.3496 207.47 50.0703V48.8262H206.2C205.625 48.8262 205.193 48.9637 204.905 49.2388C204.618 49.5138 204.474 49.8206 204.474 50.1592C204.474 50.4596 204.567 50.6903 204.753 50.8511C204.939 51.0076 205.221 51.0859 205.597 51.0859Z"/><path id="Vector_22" fill="white" d="M194.476 52V51.2002L195.511 51.0225V46.1157L194.476 45.938V45.1318H197.796V45.938L196.761 46.1157V48.1025H199.814V46.1157L198.78 45.938V45.1318H199.814H201.071H202.106V45.938L201.071 46.1157V51.0225L202.106 51.2002V52H198.78V51.2002L199.814 51.0225V49.0801H196.761V51.0225L197.796 51.2002V52H194.476Z"/><path id="Vector_23" fill="white" d="M186.123 54.0186L186.002 51.0225H186.542C186.719 50.8193 186.874 50.6183 187.005 50.4194C187.14 50.2163 187.255 49.9941 187.348 49.7529C187.445 49.5075 187.523 49.2218 187.583 48.896C187.646 48.5659 187.693 48.1724 187.722 47.7153L187.786 46.1094L186.789 45.938V45.1318H192.312H193.346V45.938L192.312 46.1157V51.0225H193.226L193.099 54.0186H191.975V52H187.246V54.0186H186.123ZM187.982 51.0225H191.061V46.2427H189.03L188.973 47.7153C188.926 48.4771 188.816 49.1266 188.643 49.6641C188.473 50.2015 188.253 50.6543 187.982 51.0225Z"/><path id="Vector_24" fill="white" d="M182.314 52.1333C181.679 52.1333 181.131 51.9852 180.67 51.689C180.213 51.3885 179.86 50.9759 179.61 50.4512C179.36 49.9222 179.235 49.3192 179.235 48.6421V48.5024C179.235 47.8254 179.36 47.2244 179.61 46.6997C179.86 46.1707 180.213 45.756 180.67 45.4556C181.131 45.1551 181.675 45.0049 182.301 45.0049C182.936 45.0049 183.482 45.1551 183.939 45.4556C184.4 45.756 184.756 46.1686 185.005 46.6934C185.255 47.2181 185.38 47.8211 185.38 48.5024V48.6421C185.38 49.3234 185.255 49.9285 185.005 50.4575C184.756 50.9823 184.402 51.3927 183.945 51.689C183.488 51.9852 182.944 52.1333 182.314 52.1333ZM182.314 51.1558C182.712 51.1558 183.044 51.0479 183.311 50.832C183.581 50.612 183.785 50.3136 183.92 49.937C184.06 49.5562 184.129 49.1245 184.129 48.6421V48.5024C184.129 48.02 184.06 47.5905 183.92 47.2139C183.785 46.833 183.581 46.5347 183.311 46.3188C183.04 46.0988 182.703 45.9888 182.301 45.9888C181.903 45.9888 181.569 46.0988 181.298 46.3188C181.028 46.5347 180.824 46.833 180.689 47.2139C180.554 47.5905 180.486 48.02 180.486 48.5024V48.6421C180.486 49.1245 180.554 49.5562 180.689 49.937C180.824 50.3136 181.028 50.612 181.298 50.832C181.573 51.0479 181.912 51.1558 182.314 51.1558Z"/><path id="Vector_25" fill="white" d="M171.491 52V51.2002L172.253 51.0542L174.303 48.5278L172.297 46.084L171.618 45.938V45.1318H174.31V45.938L173.624 46.0142L175.033 47.7661L176.404 46.0078L175.668 45.938V45.1318H178.315V45.938L177.617 46.084L175.757 48.5088L177.896 51.0542L178.607 51.2002V52H175.693V51.2002L176.519 51.1304L175.014 49.2959L173.554 51.1304L174.297 51.2002V52H171.491Z"/><path id="Vector_26" fill="white" d="M167.67 52.1333C167.039 52.1333 166.493 51.9915 166.032 51.708C165.571 51.4202 165.215 51.0246 164.966 50.521C164.72 50.0132 164.598 49.4313 164.598 48.7754V47.8867C164.598 46.9811 164.727 46.2004 164.985 45.5444C165.243 44.8843 165.607 44.3532 166.077 43.9512C166.546 43.5492 167.099 43.2847 167.733 43.1577C168.267 43.0604 168.652 42.944 168.889 42.8086C169.13 42.6732 169.25 42.451 169.25 42.1421H170.215L170.228 42.1802C170.236 42.5526 170.196 42.8551 170.107 43.0879C170.023 43.3206 169.887 43.5068 169.701 43.6465C169.515 43.7861 169.278 43.8962 168.99 43.9766C168.702 44.057 168.362 44.131 167.968 44.1987C167.583 44.2622 167.232 44.3828 166.915 44.5605C166.601 44.734 166.341 44.9731 166.134 45.2778C165.931 45.5783 165.797 45.9528 165.734 46.4014L165.759 46.4331C166.009 46.1665 166.322 45.9486 166.699 45.7793C167.08 45.61 167.484 45.5254 167.911 45.5254C168.495 45.5254 168.999 45.6587 169.422 45.9253C169.845 46.1877 170.171 46.5537 170.399 47.0234C170.628 47.4889 170.742 48.0264 170.742 48.6357V48.7754C170.742 49.4313 170.617 50.0132 170.368 50.521C170.122 51.0246 169.769 51.4202 169.308 51.708C168.851 51.9915 168.305 52.1333 167.67 52.1333ZM167.67 51.1558C168.068 51.1558 168.402 51.0542 168.673 50.8511C168.944 50.6437 169.147 50.3602 169.282 50.0005C169.422 49.6408 169.492 49.2324 169.492 48.7754V48.6357C169.492 48.2295 169.422 47.8656 169.282 47.5439C169.143 47.2223 168.937 46.9684 168.667 46.7822C168.396 46.596 168.059 46.5029 167.657 46.5029C167.259 46.5029 166.925 46.596 166.654 46.7822C166.388 46.9684 166.187 47.2223 166.051 47.5439C165.916 47.8656 165.848 48.2295 165.848 48.6357V48.7754C165.848 49.2324 165.916 49.6408 166.051 50.0005C166.187 50.3602 166.39 50.6437 166.661 50.8511C166.931 51.0542 167.268 51.1558 167.67 51.1558Z"/><path id="Vector_27" fill="white" d="M159.431 52.1333C158.715 52.1333 158.172 51.9598 157.799 51.6128C157.427 51.2616 157.241 50.7686 157.241 50.1338C157.241 49.4821 157.507 48.9595 158.041 48.5659C158.574 48.1681 159.314 47.9692 160.262 47.9692H161.487V47.2964C161.487 46.8817 161.36 46.5601 161.106 46.3315C160.857 46.103 160.503 45.9888 160.046 45.9888C159.759 45.9888 159.509 46.0247 159.297 46.0967C159.086 46.1644 158.893 46.2596 158.72 46.3823L158.586 47.3408H157.622V45.7666C157.931 45.5169 158.29 45.3286 158.701 45.2017C159.111 45.0705 159.566 45.0049 160.065 45.0049C160.899 45.0049 161.553 45.2038 162.027 45.6016C162.501 45.9993 162.738 46.5685 162.738 47.3091V50.6162C162.738 50.7051 162.738 50.7918 162.738 50.8765C162.742 50.9611 162.748 51.0457 162.757 51.1304L163.423 51.2002V52H161.627C161.589 51.8138 161.559 51.6466 161.538 51.4985C161.517 51.3504 161.502 51.2023 161.494 51.0542C161.252 51.3631 160.95 51.6213 160.586 51.8286C160.226 52.0317 159.841 52.1333 159.431 52.1333ZM159.615 51.0859C160.029 51.0859 160.408 50.9865 160.751 50.7876C161.094 50.5887 161.339 50.3496 161.487 50.0703V48.8262H160.218C159.642 48.8262 159.211 48.9637 158.923 49.2388C158.635 49.5138 158.491 49.8206 158.491 50.1592C158.491 50.4596 158.584 50.6903 158.771 50.8511C158.957 51.0076 159.238 51.0859 159.615 51.0859Z"/><path id="Vector_28" fill="white" d="M153.508 52.1333C152.874 52.1333 152.321 51.9894 151.852 51.7017C151.382 51.4097 151.018 51.0055 150.76 50.4893C150.506 49.973 150.379 49.3763 150.379 48.6992V48.4199C150.379 47.7682 150.512 47.1864 150.779 46.6743C151.05 46.158 151.407 45.7518 151.852 45.4556C152.3 45.1551 152.789 45.0049 153.318 45.0049C153.936 45.0049 154.452 45.1318 154.867 45.3857C155.286 45.6396 155.601 45.9972 155.812 46.4585C156.024 46.9155 156.13 47.4551 156.13 48.0771V48.8579H151.674L151.655 48.8896C151.663 49.3298 151.739 49.7212 151.883 50.064C152.031 50.4025 152.243 50.6691 152.518 50.8638C152.793 51.0584 153.123 51.1558 153.508 51.1558C153.931 51.1558 154.302 51.0965 154.619 50.978C154.941 50.8553 155.218 50.6882 155.451 50.4766L155.939 51.2891C155.694 51.526 155.368 51.7271 154.962 51.8921C154.56 52.0529 154.075 52.1333 153.508 52.1333ZM151.712 47.8804H154.879V47.7153C154.879 47.3853 154.82 47.0911 154.702 46.833C154.587 46.5706 154.414 46.3654 154.181 46.2173C153.953 46.0649 153.665 45.9888 153.318 45.9888C153.039 45.9888 152.785 46.0713 152.556 46.2363C152.328 46.3971 152.139 46.6172 151.991 46.8965C151.843 47.1758 151.746 47.4932 151.699 47.8486L151.712 47.8804Z"/><path id="Vector_29" fill="white" d="M141.664 52V51.2002L142.698 51.0225V46.1157L141.664 45.938V45.1318H144.983V45.938L143.949 46.1157V48.1025H147.002V46.1157L145.967 45.938V45.1318H147.002H148.259H149.293V45.938L148.259 46.1157V51.0225L149.293 51.2002V52H145.967V51.2002L147.002 51.0225V49.0801H143.949V51.0225L144.983 51.2002V52H141.664Z"/><path id="Vector_30" fill="white" d="M133.958 52V51.2002L134.992 51.0225V46.1157L133.958 45.938V45.1318H136.243V51.0225L137.277 51.2002V52H133.958ZM134.929 43.437V42.0977H136.243V43.437H134.929Z"/><path id="Vector_31" fill="white" d="M125.617 52L125.636 50.9336L125.896 50.9272C126.196 50.9272 126.433 50.8341 126.607 50.6479C126.78 50.4575 126.905 50.1528 126.981 49.7339C127.058 49.3107 127.096 48.7542 127.096 48.0645V46.1157L126.061 45.938V45.1318H131.926H132.961V45.938L131.926 46.1157V51.0225L132.961 51.2002V52H129.641V51.2002L130.676 51.0225V46.1221H128.346V48.0645C128.346 49.4186 128.166 50.4131 127.807 51.0479C127.451 51.6826 126.84 52 125.972 52H125.617Z"/><path id="Vector_32" fill="white" d="M120.685 52.1333C119.969 52.1333 119.426 51.9598 119.053 51.6128C118.681 51.2616 118.495 50.7686 118.495 50.1338C118.495 49.4821 118.761 48.9595 119.294 48.5659C119.828 48.1681 120.568 47.9692 121.516 47.9692H122.741V47.2964C122.741 46.8817 122.614 46.5601 122.36 46.3315C122.111 46.103 121.757 45.9888 121.3 45.9888C121.013 45.9888 120.763 46.0247 120.551 46.0967C120.34 46.1644 120.147 46.2596 119.974 46.3823L119.84 47.3408H118.875V45.7666C119.184 45.5169 119.544 45.3286 119.955 45.2017C120.365 45.0705 120.82 45.0049 121.319 45.0049C122.153 45.0049 122.807 45.2038 123.281 45.6016C123.755 45.9993 123.992 46.5685 123.992 47.3091V50.6162C123.992 50.7051 123.992 50.7918 123.992 50.8765C123.996 50.9611 124.002 51.0457 124.011 51.1304L124.677 51.2002V52H122.881C122.843 51.8138 122.813 51.6466 122.792 51.4985C122.771 51.3504 122.756 51.2023 122.748 51.0542C122.506 51.3631 122.204 51.6213 121.84 51.8286C121.48 52.0317 121.095 52.1333 120.685 52.1333ZM120.869 51.0859C121.283 51.0859 121.662 50.9865 122.005 50.7876C122.348 50.5887 122.593 50.3496 122.741 50.0703V48.8262H121.472C120.896 48.8262 120.465 48.9637 120.177 49.2388C119.889 49.5138 119.745 49.8206 119.745 50.1592C119.745 50.4596 119.838 50.6903 120.024 50.8511C120.211 51.0076 120.492 51.0859 120.869 51.0859Z"/><path id="Vector_33" fill="white" d="M110.585 52V51.2002L111.62 51.0225V46.1157L110.585 45.938V45.1318H113.905V45.938L112.871 46.1157V48.0327H113.531L114.965 46.1094C115.223 45.7497 115.475 45.4767 115.721 45.2905C115.97 45.1043 116.25 45.0112 116.559 45.0112C116.753 45.0112 116.914 45.0366 117.041 45.0874C117.168 45.134 117.312 45.208 117.473 45.3096L117.295 46.1602C117.113 46.1305 117.007 46.1136 116.978 46.1094C116.952 46.1051 116.897 46.103 116.812 46.103C116.656 46.103 116.501 46.1602 116.349 46.2744C116.201 46.3887 116.07 46.5241 115.956 46.6807L114.629 48.4009L116.793 51.0415L117.676 51.2002V52H116.006L113.683 49.0864H112.871V51.0225L113.905 51.2002V52H110.585Z"/><path id="Vector_34" fill="white" d="M105.019 53.9741L104.314 53.5044C104.513 53.1997 104.663 52.8887 104.765 52.5713C104.866 52.2539 104.917 51.9175 104.917 51.562V50.5972H106.167V51.543C106.167 51.9577 106.064 52.3914 105.856 52.8442C105.649 53.297 105.37 53.6737 105.019 53.9741Z"/><path id="Vector_35" fill="white" d="M100.182 52V51.2002L101.216 51.0225V49.5498C100.971 49.6133 100.721 49.6598 100.467 49.6895C100.213 49.7191 99.9447 49.7339 99.6611 49.7339C99.111 49.7339 98.637 49.6366 98.2393 49.4419C97.8415 49.2472 97.5368 48.9574 97.3252 48.5723C97.1136 48.1872 97.0078 47.7111 97.0078 47.144V46.103L95.9731 45.9253V45.1255H98.2583H99.293V45.9253L98.2583 46.103V47.144C98.2583 47.508 98.3091 47.8084 98.4106 48.0454C98.5164 48.2824 98.673 48.458 98.8804 48.5723C99.092 48.6865 99.3522 48.7437 99.6611 48.7437C99.9404 48.7437 100.207 48.7288 100.461 48.6992C100.715 48.6654 100.967 48.6167 101.216 48.5532V46.1157L100.182 45.938V45.1318H103.501V45.938L102.467 46.1157V51.0225L103.501 51.2002V52H100.182Z"/><path id="Vector_36" fill="white" d="M91.0664 52.1333C90.3512 52.1333 89.8075 51.9598 89.4351 51.6128C89.0627 51.2616 88.8765 50.7686 88.8765 50.1338C88.8765 49.4821 89.1431 48.9595 89.6763 48.5659C90.2095 48.1681 90.95 47.9692 91.8979 47.9692H93.123V47.2964C93.123 46.8817 92.9961 46.5601 92.7422 46.3315C92.4925 46.103 92.1392 45.9888 91.6821 45.9888C91.3944 45.9888 91.1447 46.0247 90.9331 46.0967C90.7215 46.1644 90.529 46.2596 90.3555 46.3823L90.2222 47.3408H89.2573V45.7666C89.5662 45.5169 89.9259 45.3286 90.3364 45.2017C90.7469 45.0705 91.2018 45.0049 91.7012 45.0049C92.5348 45.0049 93.1886 45.2038 93.6626 45.6016C94.1366 45.9993 94.3735 46.5685 94.3735 47.3091V50.6162C94.3735 50.7051 94.3735 50.7918 94.3735 50.8765C94.3778 50.9611 94.3841 51.0457 94.3926 51.1304L95.0591 51.2002V52H93.2627C93.2246 51.8138 93.195 51.6466 93.1738 51.4985C93.1527 51.3504 93.1379 51.2023 93.1294 51.0542C92.8882 51.3631 92.5856 51.6213 92.2217 51.8286C91.862 52.0317 91.4769 52.1333 91.0664 52.1333ZM91.2505 51.0859C91.6652 51.0859 92.0439 50.9865 92.3867 50.7876C92.7295 50.5887 92.9749 50.3496 93.123 50.0703V48.8262H91.8535C91.278 48.8262 90.8464 48.9637 90.5586 49.2388C90.2708 49.5138 90.127 49.8206 90.127 50.1592C90.127 50.4596 90.2201 50.6903 90.4062 50.8511C90.5924 51.0076 90.8739 51.0859 91.2505 51.0859Z"/><path id="Vector_37" fill="white" d="M84.7188 52.1333C84.0882 52.1333 83.5423 51.9915 83.0811 51.708C82.6198 51.4202 82.2643 51.0246 82.0146 50.521C81.7692 50.0132 81.6465 49.4313 81.6465 48.7754V47.8867C81.6465 46.9811 81.7756 46.2004 82.0337 45.5444C82.2918 44.8843 82.6558 44.3532 83.1255 43.9512C83.5952 43.5492 84.1475 43.2847 84.7822 43.1577C85.3154 43.0604 85.7005 42.944 85.9375 42.8086C86.1787 42.6732 86.2993 42.451 86.2993 42.1421H87.2642L87.2769 42.1802C87.2853 42.5526 87.2451 42.8551 87.1562 43.0879C87.0716 43.3206 86.9362 43.5068 86.75 43.6465C86.5638 43.7861 86.3268 43.8962 86.0391 43.9766C85.7513 44.057 85.4106 44.131 85.0171 44.1987C84.632 44.2622 84.2808 44.3828 83.9634 44.5605C83.6502 44.734 83.39 44.9731 83.1826 45.2778C82.9795 45.5783 82.8462 45.9528 82.7827 46.4014L82.8081 46.4331C83.0578 46.1665 83.3709 45.9486 83.7476 45.7793C84.1284 45.61 84.5326 45.5254 84.96 45.5254C85.5439 45.5254 86.0475 45.6587 86.4707 45.9253C86.8939 46.1877 87.2197 46.5537 87.4482 47.0234C87.6768 47.4889 87.791 48.0264 87.791 48.6357V48.7754C87.791 49.4313 87.6662 50.0132 87.4165 50.521C87.1711 51.0246 86.8177 51.4202 86.3564 51.708C85.8994 51.9915 85.3535 52.1333 84.7188 52.1333ZM84.7188 51.1558C85.1165 51.1558 85.4508 51.0542 85.7217 50.8511C85.9925 50.6437 86.1956 50.3602 86.3311 50.0005C86.4707 49.6408 86.5405 49.2324 86.5405 48.7754V48.6357C86.5405 48.2295 86.4707 47.8656 86.3311 47.5439C86.1914 47.2223 85.9862 46.9684 85.7153 46.7822C85.4445 46.596 85.1081 46.5029 84.7061 46.5029C84.3083 46.5029 83.974 46.596 83.7031 46.7822C83.4365 46.9684 83.2355 47.2223 83.1001 47.5439C82.9647 47.8656 82.897 48.2295 82.897 48.6357V48.7754C82.897 49.2324 82.9647 49.6408 83.1001 50.0005C83.2355 50.3602 83.4386 50.6437 83.7095 50.8511C83.9803 51.0542 84.3167 51.1558 84.7188 51.1558Z"/><path id="Vector_38" fill="white" d="M77.2476 52.1333C76.6128 52.1333 76.0648 51.9852 75.6035 51.689C75.1465 51.3885 74.7931 50.9759 74.5435 50.4512C74.2938 49.9222 74.1689 49.3192 74.1689 48.6421V48.5024C74.1689 47.8254 74.2938 47.2244 74.5435 46.6997C74.7931 46.1707 75.1465 45.756 75.6035 45.4556C76.0648 45.1551 76.6086 45.0049 77.2349 45.0049C77.8696 45.0049 78.4155 45.1551 78.8726 45.4556C79.3338 45.756 79.6893 46.1686 79.939 46.6934C80.1886 47.2181 80.3135 47.8211 80.3135 48.5024V48.6421C80.3135 49.3234 80.1886 49.9285 79.939 50.4575C79.6893 50.9823 79.3359 51.3927 78.8789 51.689C78.4219 51.9852 77.8781 52.1333 77.2476 52.1333ZM77.2476 51.1558C77.6453 51.1558 77.9775 51.0479 78.2441 50.832C78.515 50.612 78.7181 50.3136 78.8535 49.937C78.9932 49.5562 79.063 49.1245 79.063 48.6421V48.5024C79.063 48.02 78.9932 47.5905 78.8535 47.2139C78.7181 46.833 78.515 46.5347 78.2441 46.3188C77.9733 46.0988 77.6369 45.9888 77.2349 45.9888C76.8371 45.9888 76.5028 46.0988 76.2319 46.3188C75.9611 46.5347 75.758 46.833 75.6226 47.2139C75.4871 47.5905 75.4194 48.02 75.4194 48.5024V48.6421C75.4194 49.1245 75.4871 49.5562 75.6226 49.937C75.758 50.3136 75.9611 50.612 76.2319 50.832C76.507 51.0479 76.8455 51.1558 77.2476 51.1558Z"/><path id="Vector_39" fill="white" d="M65.4282 52V51.2002L66.4629 51.0225V46.1157L65.4282 45.938V45.1318H73.0581V45.938L72.0234 46.1157V51.0225L73.0581 51.2002V52H69.7383V51.2002L70.7729 51.0225V46.1221H67.7134V51.0225L68.748 51.2002V52H65.4282Z"/><path id="Vector_40" fill="white" d="M51.1968 52V51.2002L52.2314 51.0225V46.1157L51.1968 45.938V45.1318H54.5166V45.938L53.4819 46.1157V47.4932H55.1831C55.9956 47.4932 56.6283 47.7005 57.0811 48.1152C57.5339 48.5257 57.7603 49.061 57.7603 49.7212C57.7603 50.3856 57.5317 50.9315 57.0747 51.3589C56.6219 51.7863 55.9914 52 55.1831 52H51.1968ZM53.4819 51.0225H55.1831C55.6359 51.0225 55.9681 50.904 56.1797 50.667C56.3955 50.4258 56.5034 50.1253 56.5034 49.7656C56.5034 49.4186 56.3955 49.116 56.1797 48.8579C55.9639 48.5998 55.6317 48.4707 55.1831 48.4707H53.4819V51.0225ZM57.8999 52V51.2002L58.9346 51.0225V46.1157L57.8999 45.938V45.1318H60.1851V51.0225L61.2197 51.2002V52H57.8999Z"/><path id="Vector_41" fill="white" d="M38.5967 52V51.2002L39.6313 51.0225V43.7417L38.5967 43.564V42.7578H39.6313H41.3008L44.2778 49.772H44.3159L47.1978 42.7578H49.9844V43.564L48.9497 43.7417V51.0225L49.9844 51.2002V52H46.6646V51.2002L47.7563 51.0225V48.3438V44.4653L47.7246 44.459L44.7222 51.6699H43.8906L40.7866 44.4717L40.7549 44.478L40.7993 48.3438V51.0225L41.9165 51.2002V52H38.5967Z"/></g></g><defs><clipPath id="clip0_6_2"><rect width="253" height="55" fill="white"/></clipPath></defs></svg>