<svg width="140" height="154" viewBox="0 0 140 154" fill="none" xmlns="http://www.w3.org/2000/svg">
<path fill-rule="evenodd" clip-rule="evenodd" d="M16.7622 59.3467C23.6902 110.398 61.6135 90.706 64.5304 122.429C69.649 83.0324 37.1299 97.5686 16.7622 59.3467Z" fill="#FCF8EF"/>
<path fill-rule="evenodd" clip-rule="evenodd" d="M30.8189 73.1614C29.7725 70.19 28.8525 66.9266 28.0895 63.3252C27.974 65.6011 27.9456 67.7506 27.9936 69.7911C28.9266 70.9814 29.8684 72.1062 30.8189 73.1614Z" fill="#FCF8EF"/>
<path fill-rule="evenodd" clip-rule="evenodd" d="M36.3299 78.2974C34.4267 73.7237 32.8593 68.3828 31.8282 62.0259C31.3922 66.4273 31.3028 70.3818 31.5012 73.9548C33.0991 75.5549 34.7145 76.9894 36.3299 78.2974Z" fill="#FCF8EF"/>
<path fill-rule="evenodd" clip-rule="evenodd" d="M37.821 66.0371C37.3305 70.9857 37.2782 75.3697 37.579 79.2828C39.2358 80.5603 40.8883 81.7113 42.5167 82.773C40.5264 78.0991 38.887 72.612 37.821 66.0371Z" fill="#FCF8EF"/>
<path fill-rule="evenodd" clip-rule="evenodd" d="M46.0897 73.562C46.8745 105.839 62.6904 95.2116 65.0644 115.494C65.7075 90.4112 53.3077 98.68 46.0897 73.562Z" fill="#FCF8EF"/>
<path fill-rule="evenodd" clip-rule="evenodd" d="M125.762 59.3467C118.834 110.398 80.9108 90.706 77.994 122.429C72.8753 83.0324 105.394 97.5686 125.762 59.3467Z" fill="#FCF8EF"/>
<path fill-rule="evenodd" clip-rule="evenodd" d="M111.706 73.1614C112.752 70.19 113.672 66.9266 114.435 63.3252C114.553 65.6011 114.579 67.7506 114.529 69.7911C113.598 70.9814 112.656 72.1062 111.706 73.1614Z" fill="#FCF8EF"/>
<path fill-rule="evenodd" clip-rule="evenodd" d="M106.194 78.2974C108.1 73.7237 109.665 68.3828 110.696 62.0259C111.132 66.4273 111.222 70.3818 111.023 73.9548C109.425 75.5549 107.81 76.9894 106.194 78.2974Z" fill="#FCF8EF"/>
<path fill-rule="evenodd" clip-rule="evenodd" d="M104.703 66.0371C105.194 70.9857 105.246 75.3697 104.943 79.2828C103.289 80.5603 101.636 81.7113 100.008 82.773C101.998 78.0991 103.637 72.612 104.703 66.0371Z" fill="#FCF8EF"/>
<path fill-rule="evenodd" clip-rule="evenodd" d="M96.4346 73.562C95.6498 105.839 79.8339 95.2116 77.4599 115.494C76.8168 90.4112 89.2166 98.68 96.4346 73.562Z" fill="#FCF8EF"/>
<path d="M0.351134 153.076L0.250854 152.986V152.402L0.351134 152.311C0.898314 152.302 1.25147 152.276 1.40843 152.226C1.56539 152.18 1.70927 152.08 1.83135 151.934C1.95561 151.787 2.20413 151.308 2.58127 150.499L3.76501 147.931L6.83009 140.99C7.40779 139.63 7.98113 138.271 8.55229 136.911H9.28477L14.0939 148.223L14.737 149.73C14.9244 150.161 15.1403 150.626 15.3866 151.129C15.6286 151.63 15.7986 151.929 15.8902 152.019C15.9861 152.106 16.1016 152.18 16.239 152.226C16.3785 152.276 16.6902 152.302 17.1698 152.311L17.2592 152.402V152.986L17.1698 153.076C16.3741 153.01 15.6547 152.976 15.016 152.976C13.7712 153.015 12.5264 153.05 11.2795 153.076L11.1879 152.986V152.402L11.2795 152.311C12.121 152.295 12.6442 152.261 12.8556 152.204C13.0671 152.149 13.1717 152.019 13.1717 151.814C13.1717 151.65 13.1172 151.434 13.0148 151.162L11.6305 147.726H5.10353L3.87837 150.61C3.65819 151.129 3.55137 151.506 3.55137 151.748C3.55137 151.938 3.65165 152.075 3.85439 152.165C4.05713 152.256 4.56943 152.302 5.38911 152.311L5.48939 152.402V152.986L5.39565 153.076C4.42773 153.017 3.58189 152.986 2.85159 152.986C2.02319 152.986 1.19261 153.017 0.351134 153.076ZM5.48939 146.758H11.1879L8.36045 139.963L5.48939 146.758ZM17.4859 152.986V152.422L17.5731 152.356C18.1923 152.332 18.6086 152.261 18.8266 152.141C19.0425 152.023 19.3542 151.681 19.7619 151.118C20.3614 150.277 21.6149 148.474 23.5224 145.707L26.5634 141.363C27.49 140.048 28.0262 139.268 28.1745 139.017C28.2747 138.851 28.3205 138.705 28.3205 138.579C28.3205 138.337 28.1745 138.165 27.8802 138.056C27.5793 137.944 26.7335 137.855 25.3383 137.79L25.2489 137.709V137.149L25.3383 137.068C25.4713 137.068 25.9029 137.083 26.6332 137.114C27.3591 137.144 28.0175 137.16 28.6061 137.16C29.1991 137.16 29.84 137.144 30.5332 137.114L31.8063 137.068L31.8826 137.149C31.8587 137.471 31.8434 137.879 31.8369 138.376L31.8063 140.244V147.68C31.8063 148.295 31.8129 149.043 31.8238 149.91C31.839 150.785 31.863 151.334 31.8935 151.561C31.9241 151.792 31.9851 151.953 32.0745 152.045C32.1639 152.141 32.3426 152.21 32.6086 152.256C32.8745 152.3 33.3236 152.332 33.9558 152.356L34.0474 152.422V152.986L33.9558 153.076C33.9057 153.076 33.413 153.065 32.4778 153.034C31.5862 153.002 30.9932 152.986 30.6989 152.986C30.5398 152.986 29.4759 153.017 27.4987 153.076L27.4093 152.986V152.422L27.4987 152.356C28.1439 152.332 28.6061 152.3 28.8742 152.256C29.1446 152.21 29.3211 152.138 29.4062 152.034C29.4868 151.934 29.5413 151.763 29.5675 151.53C29.5936 151.29 29.6133 150.726 29.6285 149.825C29.6438 148.929 29.6525 148.214 29.6525 147.68V138.522H29.3473L25.3492 144.75L22.2623 149.562C21.4732 150.796 21.0611 151.469 21.0241 151.585C20.9848 151.702 20.9652 151.792 20.9652 151.862C20.9652 152.154 21.1963 152.302 21.6541 152.311L22.489 152.356L22.5762 152.422V152.986L22.489 153.076C21.7304 153.017 20.9892 152.986 20.2698 152.986C19.4131 152.986 18.5171 153.017 17.5731 153.076L17.4859 152.986ZM35.1156 153.076L35.0153 152.986V152.402L35.1156 152.311C35.6628 152.302 36.0159 152.276 36.1729 152.226C36.332 152.18 36.4737 152.08 36.5958 151.934C36.7201 151.787 36.9686 151.308 37.3457 150.499L38.5316 147.931L41.5945 140.99C42.1722 139.63 42.7456 138.271 43.3189 136.911H44.0492L48.8583 148.223L49.5014 149.73C49.6889 150.161 49.9047 150.626 50.151 151.129C50.393 151.63 50.5631 151.929 50.6546 152.019C50.7505 152.106 50.8661 152.18 51.0034 152.226C51.1429 152.276 51.4547 152.302 51.9343 152.311L52.0237 152.402V152.986L51.9343 153.076C51.1386 153.01 50.4192 152.976 49.7826 152.976C48.5357 153.015 47.2909 153.05 46.0439 153.076L45.9524 152.986V152.402L46.0439 152.311C46.8854 152.295 47.4086 152.261 47.6201 152.204C47.8315 152.149 47.9362 152.019 47.9362 151.814C47.9362 151.65 47.8817 151.434 47.7792 151.162L46.3949 147.726H39.868L38.6428 150.61C38.4226 151.129 38.3158 151.506 38.3158 151.748C38.3158 151.938 38.4161 152.075 38.6188 152.165C38.8238 152.256 39.3339 152.302 40.1536 152.311L40.2538 152.402V152.986L40.1601 153.076C39.1922 153.017 38.3463 152.986 37.616 152.986C36.7876 152.986 35.9571 153.017 35.1156 153.076ZM40.2538 146.758H45.9524L43.1249 139.963L40.2538 146.758ZM59.6406 144.955C57.9947 144.67 56.8153 144.157 56.1024 143.425C55.3874 142.686 55.0342 141.814 55.0342 140.798C55.0342 140.168 55.1694 139.601 55.4375 139.102C55.7079 138.603 56.0959 138.195 56.5908 137.875C57.0922 137.556 57.6611 137.341 58.2955 137.225C58.9299 137.114 59.6755 137.057 60.53 137.057C61.1164 137.057 61.7704 137.072 62.4898 137.103C63.4599 137.14 64.0289 137.16 64.2011 137.16C64.8791 137.16 65.9212 137.129 67.3229 137.068L67.4014 137.149V137.709L67.3229 137.79C66.6471 137.814 66.1806 137.844 65.9277 137.89C65.6705 137.938 65.5004 138.005 65.4198 138.106C65.3347 138.202 65.2824 138.361 65.2519 138.579C65.2192 138.799 65.1974 139.368 65.1821 140.29C65.1669 141.212 65.1582 141.94 65.1582 142.466V147.68C65.1582 148.265 65.1669 149.004 65.1821 149.889C65.1974 150.776 65.2192 151.334 65.2519 151.561C65.2824 151.792 65.3391 151.953 65.4328 152.045C65.52 152.141 65.701 152.21 65.9669 152.256C66.2307 152.3 66.6863 152.332 67.3229 152.356L67.4014 152.422V152.986L67.3229 153.076C67.2619 153.076 66.7692 153.065 65.847 153.034C64.9554 153.002 64.3559 152.986 64.0551 152.986C63.8981 152.986 62.8321 153.017 60.8548 153.076L60.7676 152.986V152.422L60.8548 152.356C61.6091 152.326 62.0909 152.287 62.3045 152.237C62.516 152.186 62.6642 152.125 62.7362 152.053C62.8125 151.975 62.8713 151.848 62.9062 151.668C62.9433 151.487 62.9716 150.915 62.9869 149.945C63.0021 148.977 63.0087 148.223 63.0087 147.68V138.263L62.9171 138.165C62.2217 138.132 61.6593 138.117 61.2407 138.117C58.6094 138.117 57.2949 139.082 57.2949 141.014C57.2949 142.071 57.7069 142.939 58.5266 143.612C59.3441 144.288 60.6761 144.635 62.5247 144.65V144.966C61.3977 146.174 59.198 148.873 55.9215 153.056C55.1716 153.01 54.6026 152.986 54.2233 152.986C53.7262 152.986 53.1376 153.01 52.4662 153.056L52.3725 152.952V152.422L52.4662 152.332C52.9894 152.326 53.3491 152.28 53.5388 152.199C53.7306 152.114 54.0314 151.853 54.4347 151.41C54.8424 150.968 55.6882 149.95 56.9723 148.36C58.2563 146.773 59.1457 145.64 59.6406 144.955Z" fill="#FCF8EF"/>
<path d="M74.41 137.068C76.3023 137.129 77.51 137.16 78.0245 137.16C78.733 137.16 79.5243 137.14 80.4007 137.103C81.3359 137.072 81.9092 137.057 82.1272 137.057C83.178 137.057 84.0456 137.168 84.7345 137.384C85.4234 137.602 85.9924 138.001 86.4415 138.579C86.8927 139.156 87.1194 139.856 87.1194 140.674C87.1194 141.352 86.9603 142.006 86.6464 142.636C86.3259 143.266 85.8877 143.8 85.3275 144.247C84.7607 144.689 84.1917 145.005 83.6118 145.197C83.0341 145.389 82.4346 145.485 81.8111 145.485C81.3468 145.485 80.828 145.431 80.2546 145.328L80.0671 144.639L80.1674 144.528C80.7277 144.654 81.1898 144.72 81.5386 144.72C82.524 144.72 83.3153 144.393 83.9127 143.743C84.5078 143.094 84.8086 142.263 84.8086 141.247C84.8086 140.229 84.4969 139.414 83.8778 138.801C83.2587 138.195 82.3191 137.89 81.0656 137.89C80.3854 137.89 79.6311 138.019 78.8136 138.276C78.7482 138.851 78.7134 140.249 78.7134 142.466V147.68L78.7243 149.876C78.733 150.726 78.7548 151.275 78.794 151.521C78.8289 151.772 78.8812 151.938 78.9553 152.019C79.0273 152.104 79.1624 152.171 79.3674 152.226C79.5701 152.284 80.0693 152.326 80.8672 152.356L80.9544 152.422V152.986L80.8672 153.076C78.951 153.017 77.8697 152.986 77.6321 152.986C77.3748 152.986 76.3023 153.017 74.41 153.076L74.3185 152.986V152.422L74.41 152.356C75.1098 152.326 75.5763 152.287 75.8052 152.245C76.0407 152.199 76.1933 152.141 76.2739 152.069C76.3524 151.999 76.4178 151.844 76.468 151.615C76.5137 151.38 76.5443 150.861 76.5486 150.056L76.5595 147.68V142.466L76.5399 140.266C76.5334 139.414 76.5094 138.86 76.4745 138.614C76.444 138.363 76.3895 138.197 76.3175 138.117C76.2478 138.034 76.1104 137.968 75.9099 137.914C75.705 137.859 75.2057 137.822 74.41 137.79L74.3185 137.709V137.149L74.41 137.068ZM88.2225 145.223C88.2225 144.096 88.3838 143.048 88.7065 142.071C89.0291 141.095 89.5807 140.19 90.3567 139.364C91.1328 138.533 92.0724 137.89 93.1668 137.436C94.2633 136.979 95.5016 136.752 96.8859 136.752C99.4474 136.752 101.483 137.447 102.999 138.845C104.518 140.236 105.277 142.139 105.277 144.55C105.277 146.246 104.906 147.774 104.161 149.123C103.419 150.477 102.353 151.526 100.969 152.276C99.5803 153.03 98.0238 153.403 96.2973 153.403C95.0743 153.403 93.9472 153.198 92.9182 152.79C91.8915 152.38 91.0129 151.772 90.287 150.961C89.5632 150.15 89.0378 149.211 88.7108 148.142C88.3838 147.076 88.2225 146.104 88.2225 145.223ZM90.5638 144.482C90.5638 145.396 90.7143 146.385 91.0107 147.438C91.305 148.496 91.7476 149.4 92.3362 150.152C92.9291 150.907 93.6093 151.469 94.3789 151.838C95.1484 152.206 96.0248 152.391 97.0079 152.391C98.1742 152.391 99.2076 152.121 100.117 151.591C101.028 151.057 101.715 150.231 102.188 149.108C102.665 147.985 102.9 146.723 102.9 145.328C102.9 143.809 102.63 142.44 102.087 141.212C101.547 139.989 100.777 139.102 99.7765 138.544C98.7803 137.99 97.6728 137.709 96.4542 137.709C94.6317 137.709 93.1951 138.282 92.14 139.425C91.0914 140.567 90.5638 142.252 90.5638 144.482ZM110.225 144.469C110.227 144.131 110.232 143.939 110.232 143.898C110.232 143.82 110.227 143.708 110.225 143.558L110.382 143.412C110.81 143.455 111.198 143.477 111.551 143.477C112.266 143.477 112.835 143.375 113.266 143.159C113.694 142.943 114.042 142.594 114.313 142.106C114.581 141.618 114.72 141.051 114.72 140.412C114.72 139.56 114.461 138.875 113.951 138.363C113.439 137.853 112.687 137.598 111.686 137.598C110.709 137.598 109.929 137.859 109.345 138.387C108.76 138.915 108.355 139.736 108.141 140.855L108.013 140.979H107.834L107.71 140.855C107.67 140.005 107.614 139.183 107.529 138.387C108.274 137.84 109.022 137.452 109.767 137.225C110.513 137.003 111.35 136.887 112.274 136.887C113.811 136.887 114.984 137.153 115.789 137.683C116.593 138.215 116.992 138.982 116.992 139.998C116.992 140.944 116.661 141.74 116 142.385C115.342 143.033 114.446 143.471 113.321 143.704V143.898C114.681 143.898 115.708 144.016 116.399 144.256C117.097 144.497 117.642 144.927 118.043 145.55C118.437 146.178 118.638 146.924 118.638 147.791C118.638 149.35 118.06 150.649 116.905 151.691C115.747 152.738 114.108 153.257 111.989 153.257C111.017 153.257 110.136 153.152 109.347 152.949C108.564 152.74 107.875 152.376 107.282 151.848C107.345 150.983 107.372 150.377 107.372 150.022C107.372 149.845 107.361 149.261 107.341 148.278L107.79 148.108L107.914 148.212C108.259 149.695 108.745 150.772 109.371 151.439C109.999 152.104 110.866 152.433 111.969 152.433C112.767 152.433 113.469 152.252 114.086 151.888C114.705 151.526 115.18 150.983 115.516 150.266C115.854 149.549 116.024 148.799 116.024 148.018C116.024 146.924 115.708 146.05 115.074 145.4C114.439 144.75 113.447 144.423 112.104 144.423C111.546 144.423 110.975 144.493 110.382 144.628L110.225 144.469ZM120.319 153.076L120.218 152.986V152.402L120.319 152.311C120.864 152.302 121.219 152.276 121.376 152.226C121.533 152.18 121.677 152.08 121.799 151.933C121.921 151.787 122.172 151.308 122.549 150.499L123.733 147.931L126.798 140.99C127.375 139.63 127.947 138.271 128.52 136.911H129.25L134.061 148.223L134.705 149.729C134.892 150.161 135.108 150.625 135.354 151.129C135.596 151.63 135.764 151.929 135.858 152.019C135.954 152.106 136.069 152.18 136.207 152.226C136.346 152.276 136.658 152.302 137.137 152.311L137.227 152.402V152.986L137.137 153.076C136.342 153.01 135.622 152.976 134.984 152.976C133.739 153.015 132.492 153.05 131.247 153.076L131.155 152.986V152.402L131.247 152.311C132.089 152.295 132.612 152.26 132.823 152.204C133.035 152.149 133.139 152.019 133.139 151.814C133.139 151.65 133.085 151.434 132.98 151.162L131.596 147.726H125.071L123.844 150.61C123.626 151.129 123.517 151.506 123.517 151.748C123.517 151.938 123.617 152.075 123.822 152.165C124.025 152.256 124.537 152.302 125.357 152.311L125.455 152.402V152.986L125.363 153.076C124.395 153.017 123.549 152.986 122.817 152.986C121.991 152.986 121.16 153.017 120.319 153.076ZM125.455 146.758H131.155L128.328 139.963L125.455 146.758Z" fill="#FCF8EF"/>
<path fill-rule="evenodd" clip-rule="evenodd" d="M71.2622 129.486L2.77527 128.941L71.2622 128.396L139.749 128.941L71.2622 129.486Z" fill="#FCF8EF"/>
<path fill-rule="evenodd" clip-rule="evenodd" d="M27.4332 44.4266L67.6891 84.6803V62.4443L38.5534 33.3086L27.4332 44.4266Z" fill="#FCF8EF"/>
<path fill-rule="evenodd" clip-rule="evenodd" d="M115.089 44.4266L74.8352 84.6803V62.4443L103.971 33.3086L115.089 44.4266Z" fill="#FCF8EF"/>
<path fill-rule="evenodd" clip-rule="evenodd" d="M56.5319 27.8171L77.5057 6.84118L71.2622 0.597656L44.0427 27.8171L71.2622 55.0345L98.4817 27.8171L81.2684 10.3466L63.8001 27.8171L71.2622 35.2793L78.7243 27.8171L74.9093 23.9237L78.6284 20.4509L85.9925 27.8171L71.2622 42.5474L56.5319 27.8171Z" fill="#FCF8EF"/>
</svg>
