<svg width="104" height="114" viewBox="0 0 104 114" fill="none" xmlns="http://www.w3.org/2000/svg">
<path fill-rule="evenodd" clip-rule="evenodd" d="M12.438 43.8812C17.5863 81.8184 45.7678 67.1849 47.9354 90.7592C51.7392 61.4825 27.5736 72.2847 12.438 43.8812Z" fill="#2B2A29"/>
<path fill-rule="evenodd" clip-rule="evenodd" d="M22.8837 54.1472C22.1061 51.9391 21.4225 49.514 20.8555 46.8377C20.7696 48.529 20.7486 50.1263 20.7842 51.6427C21.4776 52.5272 22.1774 53.3631 22.8837 54.1472Z" fill="#2B2A29"/>
<path fill-rule="evenodd" clip-rule="evenodd" d="M26.9791 57.9639C25.5648 54.5651 24.4 50.5961 23.6338 45.8722C23.3098 49.143 23.2434 52.0817 23.3908 54.7369C24.5782 55.9259 25.7787 56.9919 26.9791 57.9639Z" fill="#2B2A29"/>
<path fill-rule="evenodd" clip-rule="evenodd" d="M28.0872 48.853C27.7227 52.5304 27.6838 55.7882 27.9074 58.6961C29.1386 59.6455 30.3665 60.5008 31.5767 61.2898C30.0976 57.8165 28.8794 53.7389 28.0872 48.853Z" fill="#2B2A29"/>
<path fill-rule="evenodd" clip-rule="evenodd" d="M34.2318 54.4453C34.815 78.431 46.5681 70.5335 48.3323 85.6059C48.8102 66.9662 39.5957 73.1109 34.2318 54.4453Z" fill="#2B2A29"/>
<path fill-rule="evenodd" clip-rule="evenodd" d="M93.438 43.8812C88.2896 81.8184 60.1081 67.1849 57.9405 90.7592C54.1368 61.4825 78.3023 72.2847 93.438 43.8812Z" fill="#2B2A29"/>
<path fill-rule="evenodd" clip-rule="evenodd" d="M82.9922 54.1472C83.7698 51.9391 84.4535 49.514 85.0205 46.8377C85.1079 48.529 85.1274 50.1263 85.0901 51.6427C84.3984 52.5272 83.6985 53.3631 82.9922 54.1472Z" fill="#2B2A29"/>
<path fill-rule="evenodd" clip-rule="evenodd" d="M78.8969 57.9639C80.3127 54.5651 81.4759 50.5961 82.2421 45.8722C82.5661 49.143 82.6326 52.0817 82.4851 54.7369C81.2977 55.9259 80.0973 56.9919 78.8969 57.9639Z" fill="#2B2A29"/>
<path fill-rule="evenodd" clip-rule="evenodd" d="M77.7888 48.853C78.1533 52.5304 78.1921 55.7882 77.967 58.6961C76.7374 59.6455 75.5094 60.5008 74.2993 61.2898C75.7783 57.8165 76.9966 53.7389 77.7888 48.853Z" fill="#2B2A29"/>
<path fill-rule="evenodd" clip-rule="evenodd" d="M71.6441 54.4453C71.0609 78.431 59.3078 70.5335 57.5436 85.6059C57.0657 66.9662 66.2803 73.1109 71.6441 54.4453Z" fill="#2B2A29"/>
<path d="M0.242611 113.533L0.168091 113.467V113.033L0.242611 112.965C0.649231 112.958 0.911671 112.939 1.02831 112.901C1.14495 112.867 1.25187 112.793 1.34259 112.684C1.43493 112.576 1.61961 112.219 1.89987 111.618L2.77953 109.71L5.05725 104.552C5.48655 103.541 5.91261 102.532 6.33705 101.521H6.88137L10.4551 109.927L10.933 111.046C11.0723 111.367 11.2327 111.712 11.4157 112.086C11.5956 112.459 11.7219 112.681 11.79 112.747C11.8612 112.812 11.9471 112.867 12.0492 112.901C12.1528 112.939 12.3845 112.958 12.7409 112.965L12.8073 113.033V113.467L12.7409 113.533C12.1496 113.485 11.615 113.459 11.1404 113.459C10.2153 113.488 9.29031 113.514 8.36367 113.533L8.29563 113.467V113.033L8.36367 112.965C8.98899 112.953 9.37779 112.927 9.53493 112.885C9.69207 112.845 9.76983 112.747 9.76983 112.595C9.76983 112.474 9.72933 112.313 9.65319 112.111L8.62449 109.558H3.77421L2.86377 111.701C2.70015 112.086 2.62077 112.367 2.62077 112.547C2.62077 112.687 2.69529 112.79 2.84595 112.856C2.99661 112.924 3.37731 112.958 3.98643 112.965L4.06095 113.033V113.467L3.99129 113.533C3.27201 113.489 2.64345 113.467 2.10075 113.467C1.48515 113.467 0.867931 113.489 0.242611 113.533ZM4.06095 108.838H8.29563L6.19449 103.789L4.06095 108.838ZM12.9758 113.467V113.047L13.0406 112.999C13.5007 112.981 13.8101 112.927 13.9721 112.838C14.1325 112.751 14.3641 112.496 14.6671 112.078C15.1126 111.453 16.0441 110.113 17.4616 108.058L19.7215 104.829C20.41 103.852 20.8085 103.272 20.9187 103.086C20.9932 102.963 21.0272 102.854 21.0272 102.76C21.0272 102.58 20.9187 102.452 20.7 102.371C20.4764 102.289 19.8478 102.222 18.811 102.174L18.7446 102.114V101.697L18.811 101.637C18.9099 101.637 19.2306 101.649 19.7733 101.672C20.3128 101.694 20.802 101.706 21.2394 101.706C21.6801 101.706 22.1563 101.694 22.6715 101.672L23.6176 101.637L23.6743 101.697C23.6565 101.937 23.6451 102.24 23.6403 102.609L23.6176 103.998V109.524C23.6176 109.98 23.6224 110.536 23.6305 111.181C23.6419 111.831 23.6597 112.239 23.6824 112.407C23.7051 112.579 23.7504 112.699 23.8168 112.767C23.8833 112.838 24.0161 112.89 24.2137 112.924C24.4114 112.956 24.7451 112.981 25.2149 112.999L25.2829 113.047V113.467L25.2149 113.533C25.1776 113.533 24.8115 113.525 24.1165 113.502C23.454 113.478 23.0133 113.467 22.7946 113.467C22.6764 113.467 21.8858 113.489 20.4165 113.533L20.35 113.467V113.047L20.4165 112.999C20.896 112.981 21.2394 112.956 21.4387 112.924C21.6396 112.89 21.7708 112.837 21.834 112.759C21.8939 112.684 21.9344 112.558 21.9538 112.385C21.9733 112.206 21.9879 111.787 21.9992 111.118C22.0105 110.452 22.017 109.921 22.017 109.524V102.718H21.7902L18.8191 107.346L16.5252 110.922C15.9388 111.839 15.6326 112.339 15.6051 112.425C15.5759 112.513 15.5613 112.579 15.5613 112.631C15.5613 112.848 15.733 112.958 16.0732 112.965L16.6937 112.999L16.7585 113.047V113.467L16.6937 113.533C16.1299 113.489 15.5791 113.467 15.0445 113.467C14.4079 113.467 13.7421 113.489 13.0406 113.533L12.9758 113.467ZM26.0767 113.533L26.0022 113.467V113.033L26.0767 112.965C26.4834 112.958 26.7458 112.939 26.8624 112.901C26.9807 112.867 27.086 112.793 27.1767 112.684C27.2691 112.576 27.4537 112.219 27.734 111.618L28.6153 109.71L30.8914 104.552C31.3207 103.541 31.7467 102.532 32.1728 101.521H32.7155L36.2892 109.927L36.7671 111.046C36.9064 111.367 37.0668 111.712 37.2499 112.086C37.4297 112.459 37.5561 112.681 37.6241 112.747C37.6954 112.812 37.7812 112.867 37.8833 112.901C37.987 112.939 38.2186 112.958 38.575 112.965L38.6415 113.033V113.467L38.575 113.533C37.9837 113.485 37.4491 113.459 36.9761 113.459C36.0495 113.488 35.1244 113.514 34.1978 113.533L34.1298 113.467V113.033L34.1978 112.965C34.8231 112.953 35.2119 112.927 35.3691 112.885C35.5262 112.845 35.604 112.747 35.604 112.595C35.604 112.474 35.5635 112.313 35.4873 112.111L34.4586 109.558H29.6083L28.6979 111.701C28.5343 112.086 28.4549 112.367 28.4549 112.547C28.4549 112.687 28.5294 112.79 28.6801 112.856C28.8324 112.924 29.2114 112.958 29.8206 112.965L29.8951 113.033V113.467L29.8254 113.533C29.1061 113.489 28.4776 113.467 27.9349 113.467C27.3193 113.467 26.7021 113.489 26.0767 113.533ZM29.8951 108.838H34.1298L32.0286 103.789L29.8951 108.838ZM44.3017 107.499C43.0786 107.286 42.2022 106.906 41.6725 106.361C41.1411 105.812 40.8787 105.164 40.8787 104.409C40.8787 103.941 40.9791 103.52 41.1784 103.149C41.3793 102.778 41.6676 102.475 42.0354 102.237C42.408 102 42.8308 101.84 43.3022 101.754C43.7736 101.672 44.3277 101.629 44.9627 101.629C45.3985 101.629 45.8845 101.641 46.4191 101.663C47.14 101.691 47.5628 101.706 47.6908 101.706C48.1946 101.706 48.969 101.683 50.0106 101.637L50.0689 101.697V102.114L50.0106 102.174C49.5084 102.192 49.1617 102.214 48.9738 102.248C48.7827 102.284 48.6563 102.334 48.5964 102.409C48.5332 102.48 48.4943 102.598 48.4716 102.76C48.4473 102.924 48.4311 103.347 48.4198 104.032C48.4084 104.717 48.402 105.258 48.402 105.649V109.524C48.402 109.958 48.4084 110.507 48.4198 111.165C48.4311 111.824 48.4473 112.239 48.4716 112.407C48.4943 112.579 48.5364 112.699 48.6061 112.767C48.6709 112.838 48.8053 112.89 49.003 112.924C49.199 112.956 49.5376 112.981 50.0106 112.999L50.0689 113.047V113.467L50.0106 113.533C49.9653 113.533 49.5991 113.525 48.9139 113.502C48.2513 113.478 47.8058 113.467 47.5822 113.467C47.4656 113.467 46.6734 113.489 45.2041 113.533L45.1393 113.467V113.047L45.2041 112.999C45.7646 112.976 46.1226 112.947 46.2814 112.909C46.4385 112.872 46.5487 112.827 46.6021 112.773C46.6588 112.715 46.7026 112.621 46.7285 112.487C46.756 112.352 46.7771 111.928 46.7884 111.207C46.7998 110.488 46.8046 109.927 46.8046 109.524V102.525L46.7366 102.452C46.2198 102.428 45.8019 102.417 45.4908 102.417C43.5355 102.417 42.5586 103.134 42.5586 104.57C42.5586 105.355 42.8648 106 43.4739 106.501C44.0814 107.003 45.0712 107.26 46.445 107.272V107.507C45.6075 108.404 43.9729 110.41 41.538 113.519C40.9807 113.485 40.5579 113.467 40.276 113.467C39.9067 113.467 39.4693 113.485 38.9703 113.519L38.9007 113.441V113.047L38.9703 112.981C39.3591 112.976 39.6264 112.942 39.7674 112.882C39.9099 112.819 40.1335 112.624 40.4332 112.295C40.7361 111.967 41.3647 111.21 42.3189 110.029C43.273 108.85 43.934 108.007 44.3017 107.499Z" fill="#E41D2D"/>
<path d="M55.2772 101.637C56.6834 101.683 57.5809 101.706 57.9632 101.706C58.4897 101.706 59.0778 101.691 59.729 101.663C60.424 101.641 60.85 101.629 61.012 101.629C61.7929 101.629 62.4376 101.712 62.9496 101.872C63.4615 102.034 63.8843 102.331 64.218 102.76C64.5534 103.189 64.7218 103.709 64.7218 104.317C64.7218 104.821 64.6036 105.307 64.3703 105.775C64.1322 106.243 63.8065 106.64 63.3902 106.972C62.969 107.301 62.5462 107.536 62.1153 107.678C61.686 107.821 61.2405 107.892 60.7771 107.892C60.4321 107.892 60.0465 107.852 59.6205 107.776L59.4811 107.264L59.5557 107.181C59.972 107.275 60.3154 107.324 60.5746 107.324C61.3069 107.324 61.8949 107.081 62.3388 106.598C62.7811 106.115 63.0046 105.498 63.0046 104.743C63.0046 103.986 62.773 103.381 62.3129 102.925C61.8528 102.475 61.1546 102.248 60.2231 102.248C59.7177 102.248 59.1571 102.344 58.5496 102.535C58.501 102.963 58.4751 104.001 58.4751 105.649V109.524L58.4832 111.155C58.4897 111.787 58.5059 112.195 58.5351 112.378C58.561 112.564 58.5999 112.688 58.6549 112.747C58.7084 112.811 58.8088 112.861 58.9611 112.901C59.1118 112.945 59.4828 112.976 60.0757 112.999L60.1405 113.047V113.467L60.0757 113.533C58.6517 113.489 57.8482 113.467 57.6716 113.467C57.4804 113.467 56.6834 113.489 55.2772 113.533L55.2092 113.467V113.047L55.2772 112.999C55.7973 112.976 56.1439 112.947 56.314 112.916C56.489 112.882 56.6024 112.838 56.6623 112.785C56.7207 112.733 56.7693 112.618 56.8065 112.448C56.8405 112.273 56.8632 111.887 56.8665 111.289L56.8746 109.524V105.649L56.86 104.014C56.8551 103.381 56.8373 102.969 56.8114 102.786C56.7887 102.6 56.7482 102.477 56.6947 102.417C56.6429 102.355 56.5408 102.307 56.3918 102.266C56.2395 102.226 55.8685 102.198 55.2772 102.174L55.2092 102.114V101.697L55.2772 101.637ZM65.5416 107.698C65.5416 106.86 65.6614 106.081 65.9012 105.355C66.141 104.63 66.5508 103.957 67.1275 103.343C67.7043 102.726 68.4025 102.248 69.2157 101.911C70.0306 101.571 70.9507 101.403 71.9794 101.403C73.8829 101.403 75.396 101.919 76.5219 102.958C77.6511 103.991 78.2148 105.406 78.2148 107.197C78.2148 108.458 77.9394 109.593 77.3854 110.596C76.8346 111.602 76.0424 112.381 75.0137 112.939C73.9818 113.499 72.8251 113.776 71.542 113.776C70.6332 113.776 69.7957 113.624 69.031 113.321C68.268 113.016 67.6152 112.564 67.0757 111.962C66.5379 111.359 66.1474 110.661 65.9044 109.867C65.6614 109.075 65.5416 108.352 65.5416 107.698ZM67.2814 107.147C67.2814 107.826 67.3932 108.561 67.6135 109.344C67.8322 110.13 68.1611 110.802 68.5985 111.361C69.0391 111.921 69.5446 112.339 70.1164 112.613C70.6883 112.887 71.3395 113.024 72.0702 113.024C72.9369 113.024 73.7047 112.824 74.3803 112.43C75.0574 112.033 75.5677 111.419 75.9193 110.585C76.2741 109.75 76.449 108.812 76.449 107.776C76.449 106.647 76.2481 105.629 75.8448 104.717C75.443 103.808 74.8711 103.149 74.1276 102.734C73.3872 102.323 72.5643 102.114 71.6587 102.114C70.3044 102.114 69.2368 102.54 68.4527 103.389C67.6735 104.238 67.2814 105.49 67.2814 107.147ZM81.8922 107.137C81.8938 106.886 81.8971 106.744 81.8971 106.713C81.8971 106.655 81.8938 106.572 81.8922 106.46L82.0089 106.352C82.3264 106.384 82.6147 106.4 82.8772 106.4C83.4085 106.4 83.8314 106.324 84.1521 106.164C84.4696 106.003 84.7288 105.744 84.9297 105.381C85.129 105.018 85.2327 104.597 85.2327 104.123C85.2327 103.489 85.0399 102.98 84.6608 102.6C84.2801 102.221 83.7212 102.031 82.9776 102.031C82.2519 102.031 81.6719 102.226 81.2377 102.618C80.8036 103.01 80.5023 103.62 80.3435 104.451L80.2479 104.544H80.1151L80.0227 104.451C79.9936 103.82 79.9515 103.209 79.8883 102.618C80.4423 102.211 80.998 101.923 81.552 101.754C82.1061 101.589 82.7281 101.503 83.415 101.503C84.5571 101.503 85.4287 101.701 86.0265 102.094C86.6242 102.49 86.9207 103.06 86.9207 103.815C86.9207 104.518 86.6745 105.109 86.1836 105.589C85.6944 106.07 85.0285 106.395 84.1926 106.569V106.713C85.2035 106.713 85.9665 106.8 86.4801 106.979C86.9985 107.158 87.4035 107.478 87.7015 107.941C87.9948 108.407 88.1438 108.962 88.1438 109.606C88.1438 110.765 87.7145 111.73 86.8559 112.504C85.9957 113.282 84.7774 113.668 83.2028 113.668C82.4803 113.668 81.8258 113.59 81.2394 113.439C80.6578 113.284 80.1459 113.013 79.7052 112.621C79.7522 111.978 79.7716 111.528 79.7716 111.264C79.7716 111.132 79.7635 110.698 79.749 109.968L80.0827 109.841L80.175 109.919C80.431 111.021 80.7922 111.821 81.2572 112.317C81.7237 112.811 82.3685 113.055 83.1882 113.055C83.7811 113.055 84.3028 112.921 84.7612 112.65C85.2213 112.381 85.5745 111.978 85.824 111.445C86.0751 110.912 86.2014 110.355 86.2014 109.775C86.2014 108.962 85.9665 108.312 85.4951 107.829C85.0237 107.346 84.2866 107.103 83.2887 107.103C82.8739 107.103 82.4495 107.155 82.0089 107.256L81.8922 107.137ZM89.3928 113.533L89.3183 113.467V113.033L89.3928 112.965C89.7978 112.958 90.0619 112.939 90.1785 112.901C90.2952 112.867 90.4021 112.793 90.4928 112.684C90.5835 112.576 90.7698 112.219 91.0501 111.618L91.9297 109.71L94.2075 104.552C94.6368 103.541 95.0612 102.532 95.4873 101.521H96.03L99.6053 109.927L100.083 111.046C100.223 111.367 100.383 111.712 100.566 112.086C100.746 112.459 100.871 112.681 100.94 112.747C101.011 112.812 101.097 112.867 101.199 112.901C101.303 112.939 101.535 112.958 101.891 112.965L101.958 113.033V113.467L101.891 113.533C101.3 113.485 100.765 113.459 100.291 113.459C99.3656 113.488 98.4389 113.514 97.5139 113.533L97.4459 113.467V113.033L97.5139 112.965C98.1392 112.953 98.528 112.927 98.6852 112.885C98.8423 112.845 98.9201 112.747 98.9201 112.595C98.9201 112.474 98.8796 112.313 98.8018 112.111L97.7731 109.558H92.9244L92.0124 111.701C91.8504 112.086 91.7694 112.367 91.7694 112.547C91.7694 112.688 91.8439 112.79 91.9962 112.856C92.1468 112.924 92.5275 112.958 93.1366 112.965L93.2095 113.033V113.467L93.1415 113.533C92.4222 113.489 91.7937 113.467 91.2493 113.467C90.6354 113.467 90.0181 113.489 89.3928 113.533ZM93.2095 108.838H97.4459L95.3447 103.789L93.2095 108.838Z" fill="#2B2A29"/>
<path fill-rule="evenodd" clip-rule="evenodd" d="M52.938 96.0031L2.04405 95.5981L52.938 95.1931L103.832 95.5981L52.938 96.0031Z" fill="#2B2A29"/>
<path fill-rule="evenodd" clip-rule="evenodd" d="M20.3679 32.794L50.2828 62.7073V46.1833L28.6315 24.532L20.3679 32.794Z" fill="#E41D2D"/>
<path fill-rule="evenodd" clip-rule="evenodd" d="M85.5065 32.794L55.5931 62.7073V46.1833L77.2445 24.532L85.5065 32.794Z" fill="#E41D2D"/>
<path fill-rule="evenodd" clip-rule="evenodd" d="M41.9916 20.4512L57.5776 4.86354L52.938 0.223856L32.7106 20.4512L52.938 40.6769L73.1653 20.4512L60.3738 7.4685L47.3927 20.4512L52.938 25.9964L58.4832 20.4512L55.6482 17.5579L58.4119 14.9772L63.8843 20.4512L52.938 31.3975L41.9916 20.4512Z" fill="#E41D2D"/>
</svg>
