<svg width="253" height="55" viewBox="0 0 253 55" fill="none" xmlns="http://www.w3.org/2000/svg">
<g id="Frame 2" clip-path="url(#clip0_6_2)">
<path id="A" d="M12.43 39.71C10.1567 39.71 8.15833 39.4717 6.435 38.995C4.71167 38.5183 3.48333 37.9867 2.75 37.4C0.916667 35.97 0 34.32 0 32.45C0 30.8733 0.678333 29.2967 2.035 27.72C3.42833 26.1067 5.53667 24.64 8.36 23.32C11.1833 21.9633 14.74 20.9 19.03 20.13C20.8633 19.8 22.715 19.5433 24.585 19.36C26.4917 19.1767 28.3983 19.085 30.305 19.085C31.9183 19.085 33.5317 19.1583 35.145 19.305C36.795 19.4517 38.4083 19.69 39.985 20.02C40.4983 20.13 41.085 20.2767 41.745 20.46C42.405 20.6067 43.0833 20.79 43.78 21.01C46.8233 17.8933 49.7933 14.795 52.69 11.715C55.5867 8.635 58.3917 6.03167 61.105 3.905C63.0117 2.40167 64.79 1.375 66.44 0.824999C68.09 0.274999 69.5567 0 70.84 0C72.3433 0 73.5717 0.238333 74.525 0.715C75.515 1.155 76.1567 1.52167 76.45 1.815C76.56 1.925 76.56 2.035 76.45 2.145C76.34 2.255 76.23 2.255 76.12 2.145C75.9367 1.925 75.4967 1.68667 74.8 1.43C74.1033 1.17333 73.205 1.045 72.105 1.045C70.7483 1.045 69.1533 1.35667 67.32 1.98C65.4867 2.60333 63.4517 3.77667 61.215 5.5C58.465 7.66334 55.7333 10.1567 53.02 12.98C50.3433 15.7667 47.6117 18.5717 44.825 21.395C46.255 21.9083 47.5567 22.605 48.73 23.485C49.94 24.365 50.6367 25.4467 50.82 26.73V26.95C50.82 27.0967 50.7833 27.17 50.71 27.17C50.6 27.17 50.49 27.06 50.38 26.84C50.2333 26.4367 49.8117 26.0883 49.115 25.795C48.455 25.5017 47.685 25.2633 46.805 25.08C45.925 24.8967 45.0817 24.75 44.275 24.64C43.4683 24.53 42.8633 24.4567 42.46 24.42L41.855 24.365C38.8117 27.2983 35.6583 30.0117 32.395 32.505C29.1683 34.9617 25.74 36.8133 22.11 38.06C20.3867 38.6467 18.7 39.0683 17.05 39.325C15.4367 39.5817 13.8967 39.71 12.43 39.71ZM54.945 42.405C53.295 41.2317 52.085 39.82 51.315 38.17C50.545 36.52 50.16 34.7417 50.16 32.835C50.16 30.9283 50.49 29.0217 51.15 27.115C51.81 25.1717 52.7633 23.155 54.01 21.065C55.2933 18.975 56.6867 16.94 58.19 14.96C59.6933 12.9433 61.1417 11.11 62.535 9.46C63.965 7.77333 65.1567 6.38 66.11 5.28C67.1 4.18 67.6867 3.50167 67.87 3.245C68.09 2.95167 68.255 2.805 68.365 2.805C68.5117 2.805 68.6217 2.93333 68.695 3.19C68.7683 3.41 68.805 3.66667 68.805 3.96C68.805 4.54667 68.7133 4.96833 68.53 5.225C67.5767 6.435 66.44 7.975 65.12 9.845C63.8 11.715 62.4617 13.805 61.105 16.115C59.7483 18.3883 58.4833 20.735 57.31 23.155C56.1367 25.575 55.1833 27.94 54.45 30.25C53.7533 32.56 53.405 34.6683 53.405 36.575C53.405 37.675 53.5517 38.6833 53.845 39.6C54.1383 40.5167 54.615 41.3233 55.275 42.02C55.3117 42.0567 55.33 42.1117 55.33 42.185C55.33 42.2583 55.2933 42.3317 55.22 42.405C55.1467 42.4783 55.055 42.4783 54.945 42.405ZM12.595 38.775C13.9517 38.775 15.4183 38.6467 16.995 38.39C18.5717 38.17 20.2033 37.8033 21.89 37.29C25.0433 36.3 28.1783 34.6133 31.295 32.23C34.4117 29.8467 37.4733 27.1883 40.48 24.255C40.0033 24.2183 39.5267 24.2 39.05 24.2C38.5733 24.2 38.0783 24.2 37.565 24.2C34.9983 24.2 32.3217 24.3283 29.535 24.585C26.785 24.8417 24.1633 25.2083 21.67 25.685C17.6367 26.3817 14.3367 27.2617 11.77 28.325C9.24 29.3517 7.37 30.4333 6.16 31.57C4.98667 32.7067 4.4 33.7883 4.4 34.815C4.4 35.805 4.895 36.6667 5.885 37.4C6.39833 37.7667 7.24167 38.0783 8.415 38.335C9.58833 38.6283 10.9817 38.775 12.595 38.775Z" fill="#F13131"/>
<g id="sTra | &#208;&#159;&#208;&#190;&#209;&#133;&#208;&#190;&#209;&#128;&#208;&#190;&#208;&#189;&#208;&#189;&#208;&#190;&#208;&#181; &#208;&#145;&#209;&#142;&#209;&#128;&#208;&#190;">
<path id="Vector" d="M248.696 36.6741C247.915 36.6741 247.24 36.4918 246.672 36.1272C246.11 35.7574 245.675 35.2496 245.368 34.6038C245.061 33.9527 244.907 33.2105 244.907 32.3772V32.2053C244.907 31.372 245.061 30.6324 245.368 29.9866C245.675 29.3355 246.11 28.8251 246.672 28.4553C247.24 28.0855 247.909 27.9006 248.68 27.9006C249.462 27.9006 250.133 28.0855 250.696 28.4553C251.264 28.8251 251.701 29.3329 252.008 29.9788C252.316 30.6246 252.469 31.3668 252.469 32.2053V32.3772C252.469 33.2157 252.316 33.9605 252.008 34.6116C251.701 35.2574 251.266 35.7626 250.704 36.1272C250.141 36.4918 249.472 36.6741 248.696 36.6741ZM248.696 35.4709C249.186 35.4709 249.594 35.3381 249.922 35.0725C250.256 34.8017 250.506 34.4345 250.672 33.9709C250.844 33.5022 250.93 32.9709 250.93 32.3772V32.2053C250.93 31.6116 250.844 31.0829 250.672 30.6194C250.506 30.1506 250.256 29.7834 249.922 29.5178C249.589 29.247 249.175 29.1116 248.68 29.1116C248.191 29.1116 247.779 29.247 247.446 29.5178C247.113 29.7834 246.863 30.1506 246.696 30.6194C246.529 31.0829 246.446 31.6116 246.446 32.2053V32.3772C246.446 32.9709 246.529 33.5022 246.696 33.9709C246.863 34.4345 247.113 34.8017 247.446 35.0725C247.784 35.3381 248.201 35.4709 248.696 35.4709Z" fill="#1C2143"/>
<path id="Vector_2" d="M234.641 39.76V38.7678L235.837 38.5491V29.2678L234.563 29.0491V28.0569H237.157L237.297 29.0881C237.579 28.7027 237.92 28.4084 238.321 28.2053C238.727 28.0022 239.196 27.9006 239.727 27.9006C240.425 27.9006 241.021 28.0907 241.516 28.4709C242.011 28.8459 242.389 29.3746 242.649 30.0569C242.909 30.734 243.04 31.5282 243.04 32.4397V32.6038C243.04 33.4163 242.907 34.1272 242.641 34.7366C242.381 35.3459 242.006 35.8225 241.516 36.1663C241.027 36.5048 240.438 36.6741 239.751 36.6741C239.23 36.6741 238.771 36.5881 238.376 36.4163C237.985 36.2392 237.652 35.9788 237.376 35.635V38.5491L238.719 38.7678V39.76H234.641ZM239.274 35.4709C240.003 35.4709 240.555 35.2053 240.93 34.6741C241.305 34.1428 241.493 33.4527 241.493 32.6038V32.4397C241.493 31.7939 241.409 31.2261 241.243 30.7366C241.076 30.2418 240.826 29.8538 240.493 29.5725C240.165 29.2913 239.753 29.1506 239.258 29.1506C238.821 29.1506 238.446 29.2496 238.133 29.4475C237.821 29.6454 237.568 29.9163 237.376 30.26V34.3772C237.568 34.7261 237.818 34.997 238.126 35.1897C238.438 35.3772 238.821 35.4709 239.274 35.4709Z" fill="#1C2143"/>
<path id="Vector_3" d="M229.688 36.6741C228.959 36.6741 228.321 36.5126 227.774 36.1897C227.227 35.8668 226.795 35.4163 226.477 34.8381C226.159 34.26 225.972 33.5907 225.915 32.8303H223.852V35.3069L225.126 35.5256V36.51H221.04V35.5256L222.313 35.3069V29.2678L221.04 29.0491V28.0569H223.852V31.6272H225.922C225.995 30.8876 226.193 30.2392 226.516 29.6819C226.839 29.1246 227.269 28.6897 227.805 28.3772C228.342 28.0595 228.964 27.9006 229.672 27.9006C230.454 27.9006 231.126 28.0855 231.688 28.4553C232.256 28.8251 232.693 29.3329 233.001 29.9788C233.308 30.6246 233.462 31.3668 233.462 32.2053V32.3772C233.462 33.2157 233.308 33.9605 233.001 34.6116C232.693 35.2574 232.258 35.7626 231.696 36.1272C231.133 36.4918 230.464 36.6741 229.688 36.6741ZM229.688 35.4709C230.178 35.4709 230.587 35.3381 230.915 35.0725C231.248 34.8017 231.498 34.4345 231.665 33.9709C231.837 33.5022 231.922 32.9709 231.922 32.3772V32.2053C231.922 31.6116 231.837 31.0829 231.665 30.6194C231.498 30.1506 231.248 29.7834 230.915 29.5178C230.581 29.247 230.167 29.1116 229.672 29.1116C229.183 29.1116 228.771 29.247 228.438 29.5178C228.105 29.7834 227.855 30.1506 227.688 30.6194C227.521 31.0829 227.438 31.6116 227.438 32.2053V32.3772C227.438 32.9709 227.521 33.5022 227.688 33.9709C227.855 34.4345 228.105 34.8017 228.438 35.0725C228.777 35.3381 229.193 35.4709 229.688 35.4709Z" fill="#1C2143"/>
<path id="Vector_4" d="M210.344 36.51V35.5256L211.618 35.3069V26.3459L210.344 26.1272V25.135H218.594V27.6506H217.274L217.157 26.3459H213.235V29.7913H216.04C216.852 29.7913 217.542 29.9267 218.11 30.1975C218.683 30.4683 219.12 30.8538 219.422 31.3538C219.725 31.8485 219.876 32.4371 219.876 33.1194C219.876 33.8017 219.725 34.398 219.422 34.9084C219.12 35.4189 218.683 35.8147 218.11 36.0959C217.542 36.372 216.852 36.51 216.04 36.51H210.344ZM213.235 35.3069H216.04C216.811 35.3069 217.386 35.0985 217.766 34.6819C218.146 34.2652 218.337 33.7392 218.337 33.1038C218.337 32.4892 218.146 31.9866 217.766 31.5959C217.386 31.2001 216.811 31.0022 216.04 31.0022H213.235V35.3069Z" fill="#1C2143"/>
<path id="Vector_5" d="M202.04 36.6741C201.258 36.6741 200.579 36.497 200.001 36.1428C199.422 35.7834 198.975 35.286 198.657 34.6506C198.344 34.0152 198.188 33.2808 198.188 32.4475V32.1038C198.188 31.3017 198.352 30.5855 198.68 29.9553C199.014 29.3199 199.454 28.8199 200.001 28.4553C200.553 28.0855 201.154 27.9006 201.805 27.9006C202.566 27.9006 203.201 28.0569 203.712 28.3694C204.227 28.6819 204.615 29.122 204.876 29.6897C205.136 30.2522 205.266 30.9163 205.266 31.6819V32.6428H199.782L199.758 32.6819C199.769 33.2235 199.863 33.7053 200.04 34.1272C200.222 34.5439 200.482 34.872 200.821 35.1116C201.159 35.3511 201.566 35.4709 202.04 35.4709C202.561 35.4709 203.016 35.398 203.407 35.2522C203.803 35.1011 204.144 34.8954 204.43 34.635L205.032 35.635C204.73 35.9267 204.329 36.1741 203.829 36.3772C203.334 36.5751 202.738 36.6741 202.04 36.6741ZM199.829 31.4397H203.727V31.2366C203.727 30.8303 203.654 30.4683 203.508 30.1506C203.368 29.8277 203.154 29.5751 202.868 29.3928C202.587 29.2053 202.232 29.1116 201.805 29.1116C201.462 29.1116 201.149 29.2131 200.868 29.4163C200.587 29.6142 200.355 29.885 200.172 30.2288C199.99 30.5725 199.87 30.9631 199.813 31.4006L199.829 31.4397Z" fill="#1C2143"/>
<path id="Vector_6" d="M192.743 36.6741C191.962 36.6741 191.287 36.4918 190.719 36.1272C190.157 35.7574 189.722 35.2496 189.415 34.6038C189.107 33.9527 188.954 33.2105 188.954 32.3772V32.2053C188.954 31.372 189.107 30.6324 189.415 29.9866C189.722 29.3355 190.157 28.8251 190.719 28.4553C191.287 28.0855 191.956 27.9006 192.727 27.9006C193.508 27.9006 194.18 28.0855 194.743 28.4553C195.311 28.8251 195.748 29.3329 196.055 29.9788C196.363 30.6246 196.516 31.3668 196.516 32.2053V32.3772C196.516 33.2157 196.363 33.9605 196.055 34.6116C195.748 35.2574 195.313 35.7626 194.751 36.1272C194.188 36.4918 193.519 36.6741 192.743 36.6741ZM192.743 35.4709C193.232 35.4709 193.641 35.3381 193.969 35.0725C194.303 34.8017 194.553 34.4345 194.719 33.9709C194.891 33.5022 194.977 32.9709 194.977 32.3772V32.2053C194.977 31.6116 194.891 31.0829 194.719 30.6194C194.553 30.1506 194.303 29.7834 193.969 29.5178C193.636 29.247 193.222 29.1116 192.727 29.1116C192.238 29.1116 191.826 29.247 191.493 29.5178C191.159 29.7834 190.909 30.1506 190.743 30.6194C190.576 31.0829 190.493 31.6116 190.493 32.2053V32.3772C190.493 32.9709 190.576 33.5022 190.743 33.9709C190.909 34.4345 191.159 34.8017 191.493 35.0725C191.831 35.3381 192.248 35.4709 192.743 35.4709Z" fill="#1C2143"/>
<path id="Vector_7" d="M178.196 36.51V35.5256L179.469 35.3069V29.2678L178.196 29.0491V28.0569H182.282V29.0491L181.008 29.2678V31.7131H184.766V29.2678L183.493 29.0491V28.0569H184.766H186.313H187.587V29.0491L186.313 29.2678V35.3069L187.587 35.5256V36.51H183.493V35.5256L184.766 35.3069V32.9163H181.008V35.3069L182.282 35.5256V36.51H178.196Z" fill="#1C2143"/>
<path id="Vector_8" d="M167.29 36.51V35.5256L168.563 35.3069V29.2678L167.29 29.0491V28.0569H171.376V29.0491L170.102 29.2678V31.7131H173.86V29.2678L172.587 29.0491V28.0569H173.86H175.407H176.68V29.0491L175.407 29.2678V35.3069L176.68 35.5256V36.51H172.587V35.5256L173.86 35.3069V32.9163H170.102V35.3069L171.376 35.5256V36.51H167.29Z" fill="#1C2143"/>
<path id="Vector_9" d="M161.946 36.6741C161.165 36.6741 160.49 36.4918 159.922 36.1272C159.36 35.7574 158.925 35.2496 158.618 34.6038C158.311 33.9527 158.157 33.2105 158.157 32.3772V32.2053C158.157 31.372 158.311 30.6324 158.618 29.9866C158.925 29.3355 159.36 28.8251 159.922 28.4553C160.49 28.0855 161.159 27.9006 161.93 27.9006C162.712 27.9006 163.383 28.0855 163.946 28.4553C164.514 28.8251 164.951 29.3329 165.258 29.9788C165.566 30.6246 165.719 31.3668 165.719 32.2053V32.3772C165.719 33.2157 165.566 33.9605 165.258 34.6116C164.951 35.2574 164.516 35.7626 163.954 36.1272C163.391 36.4918 162.722 36.6741 161.946 36.6741ZM161.946 35.4709C162.436 35.4709 162.844 35.3381 163.172 35.0725C163.506 34.8017 163.756 34.4345 163.922 33.9709C164.094 33.5022 164.18 32.9709 164.18 32.3772V32.2053C164.18 31.6116 164.094 31.0829 163.922 30.6194C163.756 30.1506 163.506 29.7834 163.172 29.5178C162.839 29.247 162.425 29.1116 161.93 29.1116C161.441 29.1116 161.029 29.247 160.696 29.5178C160.363 29.7834 160.113 30.1506 159.946 30.6194C159.779 31.0829 159.696 31.6116 159.696 32.2053V32.3772C159.696 32.9709 159.779 33.5022 159.946 33.9709C160.113 34.4345 160.363 34.8017 160.696 35.0725C161.034 35.3381 161.451 35.4709 161.946 35.4709Z" fill="#1C2143"/>
<path id="Vector_10" d="M147.891 39.76V38.7678L149.087 38.5491V29.2678L147.813 29.0491V28.0569H150.407L150.547 29.0881C150.829 28.7027 151.17 28.4084 151.571 28.2053C151.977 28.0022 152.446 27.9006 152.977 27.9006C153.675 27.9006 154.271 28.0907 154.766 28.4709C155.261 28.8459 155.639 29.3746 155.899 30.0569C156.159 30.734 156.29 31.5282 156.29 32.4397V32.6038C156.29 33.4163 156.157 34.1272 155.891 34.7366C155.631 35.3459 155.256 35.8225 154.766 36.1663C154.277 36.5048 153.688 36.6741 153.001 36.6741C152.48 36.6741 152.021 36.5881 151.626 36.4163C151.235 36.2392 150.902 35.9788 150.626 35.635V38.5491L151.969 38.7678V39.76H147.891ZM152.524 35.4709C153.253 35.4709 153.805 35.2053 154.18 34.6741C154.555 34.1428 154.743 33.4527 154.743 32.6038V32.4397C154.743 31.7939 154.659 31.2261 154.493 30.7366C154.326 30.2418 154.076 29.8538 153.743 29.5725C153.415 29.2913 153.003 29.1506 152.508 29.1506C152.071 29.1506 151.696 29.2496 151.383 29.4475C151.071 29.6454 150.818 29.9163 150.626 30.26V34.3772C150.818 34.7261 151.068 34.997 151.376 35.1897C151.688 35.3772 152.071 35.4709 152.524 35.4709Z" fill="#1C2143"/>
<path id="Vector_11" d="M142.962 36.6741C142.18 36.6741 141.506 36.4918 140.938 36.1272C140.376 35.7574 139.941 35.2496 139.633 34.6038C139.326 33.9527 139.172 33.2105 139.172 32.3772V32.2053C139.172 31.372 139.326 30.6324 139.633 29.9866C139.941 29.3355 140.376 28.8251 140.938 28.4553C141.506 28.0855 142.175 27.9006 142.946 27.9006C143.727 27.9006 144.399 28.0855 144.962 28.4553C145.529 28.8251 145.967 29.3329 146.274 29.9788C146.581 30.6246 146.735 31.3668 146.735 32.2053V32.3772C146.735 33.2157 146.581 33.9605 146.274 34.6116C145.967 35.2574 145.532 35.7626 144.969 36.1272C144.407 36.4918 143.738 36.6741 142.962 36.6741ZM142.962 35.4709C143.451 35.4709 143.86 35.3381 144.188 35.0725C144.521 34.8017 144.771 34.4345 144.938 33.9709C145.11 33.5022 145.196 32.9709 145.196 32.3772V32.2053C145.196 31.6116 145.11 31.0829 144.938 30.6194C144.771 30.1506 144.521 29.7834 144.188 29.5178C143.855 29.247 143.441 29.1116 142.946 29.1116C142.456 29.1116 142.045 29.247 141.712 29.5178C141.378 29.7834 141.128 30.1506 140.962 30.6194C140.795 31.0829 140.712 31.6116 140.712 32.2053V32.3772C140.712 32.9709 140.795 33.5022 140.962 33.9709C141.128 34.4345 141.378 34.8017 141.712 35.0725C142.05 35.3381 142.467 35.4709 142.962 35.4709Z" fill="#1C2143"/>
<path id="Vector_12" d="M129.641 36.51V35.5256L130.579 35.3459L133.102 32.2366L130.633 29.2288L129.797 29.0491V28.0569H133.11V29.0491L132.266 29.1428L134.001 31.2991L135.688 29.135L134.782 29.0491V28.0569H138.04V29.0491L137.18 29.2288L134.891 32.2131L137.524 35.3459L138.399 35.5256V36.51H134.813V35.5256L135.829 35.4397L133.977 33.1819L132.18 35.4397L133.094 35.5256V36.51H129.641Z" fill="#1C2143"/>
<path id="Vector_13" d="M124.899 36.6741C124.118 36.6741 123.443 36.4918 122.876 36.1272C122.313 35.7574 121.878 35.2496 121.571 34.6038C121.264 33.9527 121.11 33.2105 121.11 32.3772V32.2053C121.11 31.372 121.264 30.6324 121.571 29.9866C121.878 29.3355 122.313 28.8251 122.876 28.4553C123.443 28.0855 124.113 27.9006 124.883 27.9006C125.665 27.9006 126.337 28.0855 126.899 28.4553C127.467 28.8251 127.904 29.3329 128.212 29.9788C128.519 30.6246 128.672 31.3668 128.672 32.2053V32.3772C128.672 33.2157 128.519 33.9605 128.212 34.6116C127.904 35.2574 127.469 35.7626 126.907 36.1272C126.344 36.4918 125.675 36.6741 124.899 36.6741ZM124.899 35.4709C125.389 35.4709 125.797 35.3381 126.126 35.0725C126.459 34.8017 126.709 34.4345 126.876 33.9709C127.047 33.5022 127.133 32.9709 127.133 32.3772V32.2053C127.133 31.6116 127.047 31.0829 126.876 30.6194C126.709 30.1506 126.459 29.7834 126.126 29.5178C125.792 29.247 125.378 29.1116 124.883 29.1116C124.394 29.1116 123.982 29.247 123.649 29.5178C123.316 29.7834 123.066 30.1506 122.899 30.6194C122.732 31.0829 122.649 31.6116 122.649 32.2053V32.3772C122.649 32.9709 122.732 33.5022 122.899 33.9709C123.066 34.4345 123.316 34.8017 123.649 35.0725C123.988 35.3381 124.404 35.4709 124.899 35.4709Z" fill="#1C2143"/>
<path id="Vector_14" d="M108.79 36.51V35.5256L110.063 35.3069V26.3459L108.79 26.1272V25.135H119.946V26.1272L118.672 26.3459V35.3069L119.946 35.5256V36.51H115.86V35.5256L117.133 35.3069V26.3459H111.602V35.3069L112.876 35.5256V36.51H108.79Z" fill="#1C2143"/>
<path id="Vector_15" d="M102.105 24.51V39.45L100.645 40.05L100.625 22.47V22.33L102.245 21.73C102.151 22.9967 102.105 23.9233 102.105 24.51Z" fill="#1C2143"/>
<path id="Vector_16" d="M90.8465 32.11C90.2452 31.89 89.5485 31.78 88.7565 31.78C87.9792 31.78 87.4145 31.9047 87.0625 32.154C86.8425 32.4913 86.7325 32.946 86.7325 33.518C86.7325 34.0753 86.8865 34.5153 87.1945 34.838C87.5025 35.1607 87.8839 35.322 88.3385 35.322C88.8079 35.322 89.2845 35.2047 89.7685 34.97C90.2525 34.7207 90.6119 34.4567 90.8465 34.178V32.11ZM91.1985 35.278C90.3039 36.2607 89.2919 36.752 88.1625 36.752C87.0479 36.752 86.1679 36.51 85.5225 36.026C84.8919 35.542 84.5765 34.7647 84.5765 33.694C84.5765 32.6087 84.9505 31.8313 85.6985 31.362C86.4612 30.8927 87.5319 30.658 88.9105 30.658L90.8465 30.724V29.47C90.8465 28.6927 90.6559 28.062 90.2745 27.578C89.8932 27.094 89.3139 26.852 88.5365 26.852C87.9645 26.8667 87.0479 27.4167 85.7865 28.502C85.3612 27.9593 85.0605 27.2553 84.8845 26.39C86.3365 25.9207 87.6712 25.686 88.8885 25.686C90.1059 25.686 91.0812 26.0013 91.8145 26.632C92.5479 27.2627 92.9145 28.1573 92.9145 29.316V33.012C92.9292 33.672 93.0319 34.288 93.2225 34.86C93.4279 35.4173 93.6919 35.806 94.0145 36.026L94.0585 36.246L91.7045 36.818C91.5139 36.3487 91.3452 35.8353 91.1985 35.278Z" fill="#1C2143"/>
<path id="Vector_17" d="M82.7296 25.686C83.1843 25.686 83.5216 25.7373 83.7416 25.84C83.7416 25.928 83.7416 26.016 83.7416 26.104C83.7416 26.9693 83.6096 27.754 83.3456 28.458C82.6856 28.0327 81.9376 27.82 81.1016 27.82C80.6469 27.82 80.1922 27.9007 79.7376 28.062V32.77C79.7376 34.1927 79.9503 35.388 80.3756 36.356V36.51H77.2956V36.356C77.5449 35.6227 77.6696 34.6473 77.6696 33.43V29.69C77.6696 29.0593 77.5376 28.4433 77.2736 27.842C77.0242 27.226 76.7309 26.8153 76.3936 26.61L76.3716 26.346L78.9676 25.664C79.2022 26.06 79.3929 26.522 79.5396 27.05C80.4196 26.1407 81.4829 25.686 82.7296 25.686Z" fill="#1C2143"/>
<path id="Vector_18" d="M65.3412 23.002C65.3412 22.342 65.3045 21.6893 65.2312 21.044C68.1792 21.088 70.0712 21.11 70.9072 21.11C71.7578 21.11 73.6572 21.088 76.6052 21.044C76.5025 21.9387 76.4512 22.5913 76.4512 23.002H76.2972C74.6692 22.5913 73.2832 22.3713 72.1392 22.342C72.0658 23.1047 72.0292 24.2853 72.0292 25.884V31.934C72.0292 33.914 72.1392 35.388 72.3592 36.356V36.51H69.4772V36.356C69.6678 35.4027 69.7632 33.958 69.7632 32.022V25.972C69.7632 24.3147 69.7265 23.1047 69.6532 22.342C68.5385 22.3713 67.1525 22.5913 65.4952 23.002H65.3412Z" fill="#1C2143"/>
<path id="Vector_19" d="M59.027 27.072C58.763 27.336 58.631 27.7027 58.631 28.172C58.631 28.6267 58.7777 28.986 59.071 29.25C59.3643 29.4993 59.731 29.6827 60.171 29.8C60.6257 29.9173 61.1097 30.064 61.623 30.24C62.1363 30.416 62.613 30.6067 63.053 30.812C63.5077 31.0027 63.8817 31.318 64.175 31.758C64.4683 32.198 64.615 32.7333 64.615 33.364C64.615 34.4787 64.2043 35.322 63.383 35.894C62.5617 36.466 61.4763 36.752 60.127 36.752C58.7923 36.752 57.6043 36.4073 56.563 35.718C56.607 34.97 56.827 34.3027 57.223 33.716C58.543 34.9187 59.7457 35.52 60.831 35.52C61.3003 35.52 61.7183 35.4247 62.085 35.234C62.437 34.926 62.613 34.5153 62.613 34.002C62.613 33.474 62.4077 33.0707 61.997 32.792C61.601 32.4987 61.117 32.2713 60.545 32.11C59.973 31.9487 59.401 31.7653 58.829 31.56C58.257 31.3547 57.7657 31.032 57.355 30.592C56.959 30.152 56.761 29.58 56.761 28.876C56.761 27.8493 57.1423 27.0647 57.905 26.522C58.6823 25.9647 59.6577 25.686 60.831 25.686C62.0043 25.686 63.1557 25.9353 64.285 26.434C64.153 27.0793 63.8963 27.7247 63.515 28.37C62.4737 27.3287 61.3883 26.808 60.259 26.808C59.775 26.808 59.3643 26.896 59.027 27.072Z" fill="#1C2143"/>
</g>
<g id="&#208;&#156;&#209;&#139; &#209;&#128;&#209;&#143;&#208;&#180;&#208;&#190;&#208;&#188;, &#208;&#186;&#208;&#190;&#208;&#179;&#208;&#180;&#208;&#176; &#208;&#189;&#208;&#181;&#208;&#190;&#208;&#177;&#209;&#133;&#208;&#190;&#208;&#180;&#208;&#184;&#208;&#188;&#208;&#190;">
<path id="Vector_20" d="M224.318 51.6433C223.683 51.6433 223.135 51.4952 222.673 51.199C222.216 50.8985 221.863 50.4859 221.613 49.9612C221.364 49.4322 221.239 48.8292 221.239 48.1521V48.0124C221.239 47.3354 221.364 46.7344 221.613 46.2097C221.863 45.6807 222.216 45.266 222.673 44.9656C223.135 44.6651 223.679 44.5149 224.305 44.5149C224.94 44.5149 225.485 44.6651 225.943 44.9656C226.404 45.266 226.759 45.6786 227.009 46.2034C227.259 46.7281 227.383 47.3311 227.383 48.0124V48.1521C227.383 48.8334 227.259 49.4386 227.009 49.9675C226.759 50.4923 226.406 50.9027 225.949 51.199C225.492 51.4952 224.948 51.6433 224.318 51.6433ZM224.318 50.6658C224.715 50.6658 225.047 50.5579 225.314 50.342C225.585 50.122 225.788 49.8236 225.923 49.447C226.063 49.0662 226.133 48.6345 226.133 48.1521V48.0124C226.133 47.53 226.063 47.1005 225.923 46.7239C225.788 46.343 225.585 46.0447 225.314 45.8288C225.043 45.6088 224.707 45.4988 224.305 45.4988C223.907 45.4988 223.573 45.6088 223.302 45.8288C223.031 46.0447 222.828 46.343 222.693 46.7239C222.557 47.1005 222.489 47.53 222.489 48.0124V48.1521C222.489 48.6345 222.557 49.0662 222.693 49.447C222.828 49.8236 223.031 50.122 223.302 50.342C223.577 50.5579 223.915 50.6658 224.318 50.6658Z" fill="#1C2143"/>
<path id="Vector_21" d="M210.416 51.51V50.7102L211.451 50.5325V45.6257L210.416 45.448V44.6418H211.451H213.063L215.297 49.8723H215.336L217.576 44.6418H219.144H220.179V45.448L219.144 45.6257V50.5325L220.179 50.7102V51.51H216.859V50.7102L217.894 50.5325V46.7429L217.856 46.7302L215.748 51.51H214.885L212.739 46.6287L212.701 46.6413V50.5325L213.736 50.7102V51.51H210.416Z" fill="#1C2143"/>
<path id="Vector_22" d="M201.555 51.51V50.7102L202.589 50.5325V45.6257L201.555 45.448V44.6418H203.834H204.868V45.448L203.834 45.6257V49.5041L203.872 49.5168L206.9 44.6418H208.15H209.185V45.448L208.15 45.6257V50.5325L209.185 50.7102V51.51H205.865V50.7102L206.9 50.5325V46.6477L206.861 46.635L203.834 51.51H201.555Z" fill="#1C2143"/>
<path id="Vector_23" d="M193.201 53.5286L193.081 50.5325H193.62C193.798 50.3293 193.952 50.1283 194.084 49.9294C194.219 49.7263 194.333 49.5041 194.426 49.2629C194.524 49.0175 194.602 48.7318 194.661 48.406C194.725 48.0759 194.771 47.6824 194.801 47.2253L194.864 45.6194L193.868 45.448V44.6418H199.39H200.425V45.448L199.39 45.6257V50.5325H200.304L200.177 53.5286H199.054V51.51H194.325V53.5286H193.201ZM195.061 50.5325H198.14V45.7527H196.109L196.051 47.2253C196.005 47.9871 195.895 48.6366 195.721 49.1741C195.552 49.7115 195.332 50.1643 195.061 50.5325Z" fill="#1C2143"/>
<path id="Vector_24" d="M189.393 51.6433C188.758 51.6433 188.21 51.4952 187.749 51.199C187.292 50.8985 186.938 50.4859 186.689 49.9612C186.439 49.4322 186.314 48.8292 186.314 48.1521V48.0124C186.314 47.3354 186.439 46.7344 186.689 46.2097C186.938 45.6807 187.292 45.266 187.749 44.9656C188.21 44.6651 188.754 44.5149 189.38 44.5149C190.015 44.5149 190.561 44.6651 191.018 44.9656C191.479 45.266 191.834 45.6786 192.084 46.2034C192.334 46.7281 192.459 47.3311 192.459 48.0124V48.1521C192.459 48.8334 192.334 49.4386 192.084 49.9675C191.834 50.4923 191.481 50.9027 191.024 51.199C190.567 51.4952 190.023 51.6433 189.393 51.6433ZM189.393 50.6658C189.79 50.6658 190.123 50.5579 190.389 50.342C190.66 50.122 190.863 49.8236 190.999 49.447C191.138 49.0662 191.208 48.6345 191.208 48.1521V48.0124C191.208 47.53 191.138 47.1005 190.999 46.7239C190.863 46.343 190.66 46.0447 190.389 45.8288C190.118 45.6088 189.782 45.4988 189.38 45.4988C188.982 45.4988 188.648 45.6088 188.377 45.8288C188.106 46.0447 187.903 46.343 187.768 46.7239C187.632 47.1005 187.565 47.53 187.565 48.0124V48.1521C187.565 48.6345 187.632 49.0662 187.768 49.447C187.903 49.8236 188.106 50.122 188.377 50.342C188.652 50.5579 188.991 50.6658 189.393 50.6658Z" fill="#1C2143"/>
<path id="Vector_25" d="M178.57 51.51V50.7102L179.332 50.5642L181.382 48.0378L179.376 45.594L178.697 45.448V44.6418H181.388V45.448L180.703 45.5242L182.112 47.2761L183.483 45.5178L182.747 45.448V44.6418H185.394V45.448L184.695 45.594L182.836 48.0188L184.975 50.5642L185.686 50.7102V51.51H182.772V50.7102L183.597 50.6404L182.093 48.8059L180.633 50.6404L181.376 50.7102V51.51H178.57Z" fill="#1C2143"/>
<path id="Vector_26" d="M174.749 51.6433C174.118 51.6433 173.572 51.5015 173.111 51.218C172.65 50.9302 172.294 50.5346 172.045 50.031C171.799 49.5232 171.676 48.9413 171.676 48.2854V47.3967C171.676 46.4911 171.805 45.7104 172.064 45.0544C172.322 44.3943 172.686 43.8632 173.155 43.4612C173.625 43.0592 174.177 42.7947 174.812 42.6677C175.345 42.5704 175.73 42.454 175.967 42.3186C176.209 42.1832 176.329 41.961 176.329 41.6521H177.294L177.307 41.6902C177.315 42.0626 177.275 42.3651 177.186 42.5979C177.102 42.8306 176.966 43.0168 176.78 43.1565C176.594 43.2961 176.357 43.4062 176.069 43.4866C175.781 43.567 175.441 43.641 175.047 43.7087C174.662 43.7722 174.311 43.8928 173.993 44.0705C173.68 44.2441 173.42 44.4831 173.213 44.7878C173.009 45.0883 172.876 45.4628 172.813 45.9114L172.838 45.9431C173.088 45.6765 173.401 45.4586 173.777 45.2893C174.158 45.12 174.562 45.0354 174.99 45.0354C175.574 45.0354 176.077 45.1687 176.501 45.4353C176.924 45.6977 177.25 46.0637 177.478 46.5334C177.707 46.9989 177.821 47.5364 177.821 48.1457V48.2854C177.821 48.9413 177.696 49.5232 177.446 50.031C177.201 50.5346 176.848 50.9302 176.386 51.218C175.929 51.5015 175.383 51.6433 174.749 51.6433ZM174.749 50.6658C175.146 50.6658 175.481 50.5642 175.752 50.3611C176.022 50.1537 176.226 49.8702 176.361 49.5105C176.501 49.1508 176.57 48.7424 176.57 48.2854V48.1457C176.57 47.7395 176.501 47.3756 176.361 47.0539C176.221 46.7323 176.016 46.4784 175.745 46.2922C175.474 46.106 175.138 46.0129 174.736 46.0129C174.338 46.0129 174.004 46.106 173.733 46.2922C173.466 46.4784 173.265 46.7323 173.13 47.0539C172.995 47.3756 172.927 47.7395 172.927 48.1457V48.2854C172.927 48.7424 172.995 49.1508 173.13 49.5105C173.265 49.8702 173.469 50.1537 173.739 50.3611C174.01 50.5642 174.347 50.6658 174.749 50.6658Z" fill="#1C2143"/>
<path id="Vector_27" d="M167.277 51.6433C166.643 51.6433 166.095 51.4952 165.633 51.199C165.176 50.8985 164.823 50.4859 164.573 49.9612C164.324 49.4322 164.199 48.8292 164.199 48.1521V48.0124C164.199 47.3354 164.324 46.7344 164.573 46.2097C164.823 45.6807 165.176 45.266 165.633 44.9656C166.095 44.6651 166.638 44.5149 167.265 44.5149C167.9 44.5149 168.445 44.6651 168.902 44.9656C169.364 45.266 169.719 45.6786 169.969 46.2034C170.219 46.7281 170.343 47.3311 170.343 48.0124V48.1521C170.343 48.8334 170.219 49.4386 169.969 49.9675C169.719 50.4923 169.366 50.9027 168.909 51.199C168.452 51.4952 167.908 51.6433 167.277 51.6433ZM167.277 50.6658C167.675 50.6658 168.007 50.5579 168.274 50.342C168.545 50.122 168.748 49.8236 168.883 49.447C169.023 49.0662 169.093 48.6345 169.093 48.1521V48.0124C169.093 47.53 169.023 47.1005 168.883 46.7239C168.748 46.343 168.545 46.0447 168.274 45.8288C168.003 45.6088 167.667 45.4988 167.265 45.4988C166.867 45.4988 166.533 45.6088 166.262 45.8288C165.991 46.0447 165.788 46.343 165.652 46.7239C165.517 47.1005 165.449 47.53 165.449 48.0124V48.1521C165.449 48.6345 165.517 49.0662 165.652 49.447C165.788 49.8236 165.991 50.122 166.262 50.342C166.537 50.5579 166.875 50.6658 167.277 50.6658Z" fill="#1C2143"/>
<path id="Vector_28" d="M160.384 51.6433C159.749 51.6433 159.197 51.4994 158.727 51.2117C158.257 50.9197 157.894 50.5155 157.635 49.9993C157.381 49.483 157.255 48.8863 157.255 48.2092V47.9299C157.255 47.2782 157.388 46.6964 157.654 46.1843C157.925 45.668 158.283 45.2618 158.727 44.9656C159.176 44.6651 159.665 44.5149 160.193 44.5149C160.811 44.5149 161.328 44.6418 161.742 44.8957C162.161 45.1497 162.477 45.5072 162.688 45.9685C162.9 46.4255 163.005 46.9651 163.005 47.5872V48.3679H158.549L158.53 48.3997C158.539 48.8398 158.615 49.2312 158.759 49.574C158.907 49.9125 159.119 50.1791 159.394 50.3738C159.669 50.5684 159.999 50.6658 160.384 50.6658C160.807 50.6658 161.177 50.6065 161.495 50.488C161.816 50.3653 162.094 50.1982 162.326 49.9866L162.815 50.7991C162.57 51.036 162.244 51.2371 161.838 51.4021C161.436 51.5629 160.951 51.6433 160.384 51.6433ZM158.588 47.3904H161.755V47.2253C161.755 46.8953 161.696 46.6011 161.577 46.343C161.463 46.0806 161.29 45.8754 161.057 45.7273C160.828 45.5749 160.54 45.4988 160.193 45.4988C159.914 45.4988 159.66 45.5813 159.432 45.7463C159.203 45.9071 159.015 46.1272 158.867 46.4065C158.719 46.6858 158.621 47.0032 158.575 47.3586L158.588 47.3904Z" fill="#1C2143"/>
<path id="Vector_29" d="M148.539 51.51V50.7102L149.574 50.5325V45.6257L148.539 45.448V44.6418H151.859V45.448L150.824 45.6257V47.6125H153.878V45.6257L152.843 45.448V44.6418H153.878H155.134H156.169V45.448L155.134 45.6257V50.5325L156.169 50.7102V51.51H152.843V50.7102L153.878 50.5325V48.5901H150.824V50.5325L151.859 50.7102V51.51H148.539Z" fill="#1C2143"/>
<path id="Vector_30" d="M140.192 51.6433C139.477 51.6433 138.933 51.4698 138.561 51.1228C138.188 50.7716 138.002 50.2786 138.002 49.6438C138.002 48.9921 138.269 48.4695 138.802 48.0759C139.335 47.6781 140.076 47.4792 141.024 47.4792H142.249V46.8064C142.249 46.3917 142.122 46.0701 141.868 45.8415C141.618 45.613 141.265 45.4988 140.808 45.4988C140.52 45.4988 140.27 45.5347 140.059 45.6067C139.847 45.6744 139.655 45.7696 139.481 45.8923L139.348 46.8508H138.383V45.2766C138.692 45.0269 139.052 44.8386 139.462 44.7117C139.873 44.5805 140.327 44.5149 140.827 44.5149C141.66 44.5149 142.314 44.7138 142.788 45.1116C143.262 45.5094 143.499 46.0785 143.499 46.8191V50.1262C143.499 50.2151 143.499 50.3018 143.499 50.3865C143.503 50.4711 143.51 50.5557 143.518 50.6404L144.185 50.7102V51.51H142.388C142.35 51.3238 142.321 51.1566 142.299 51.0085C142.278 50.8604 142.263 50.7123 142.255 50.5642C142.014 50.8731 141.711 51.1313 141.347 51.3386C140.988 51.5417 140.602 51.6433 140.192 51.6433ZM140.376 50.5959C140.791 50.5959 141.17 50.4965 141.512 50.2976C141.855 50.0987 142.101 49.8596 142.249 49.5803V48.3362H140.979C140.404 48.3362 139.972 48.4737 139.684 48.7488C139.396 49.0238 139.253 49.3306 139.253 49.6692C139.253 49.9696 139.346 50.2003 139.532 50.3611C139.718 50.5177 139.999 50.5959 140.376 50.5959Z" fill="#1C2143"/>
<path id="Vector_31" d="M129.763 53.5286L129.642 50.5325H130.182C130.359 50.3293 130.514 50.1283 130.645 49.9294C130.781 49.7263 130.895 49.5041 130.988 49.2629C131.085 49.0175 131.164 48.7318 131.223 48.406C131.286 48.0759 131.333 47.6824 131.362 47.2253L131.426 45.6194L130.429 45.448V44.6418H135.952H136.986V45.448L135.952 45.6257V50.5325H136.866L136.739 53.5286H135.615V51.51H130.886V53.5286H129.763ZM131.623 50.5325H134.701V45.7527H132.67L132.613 47.2253C132.566 47.9871 132.456 48.6366 132.283 49.1741C132.114 49.7115 131.894 50.1643 131.623 50.5325Z" fill="#1C2143"/>
<path id="Vector_32" d="M123.206 51.51V50.7102L124.24 50.5325V45.6257L123.206 45.448V44.6418H128.811V46.4128H127.998L127.909 45.6321H125.491V50.5325L126.526 50.7102V51.51H123.206Z" fill="#1C2143"/>
<path id="Vector_33" d="M119.023 51.6433C118.388 51.6433 117.84 51.4952 117.379 51.199C116.922 50.8985 116.568 50.4859 116.318 49.9612C116.069 49.4322 115.944 48.8292 115.944 48.1521V48.0124C115.944 47.3354 116.069 46.7344 116.318 46.2097C116.568 45.6807 116.922 45.266 117.379 44.9656C117.84 44.6651 118.384 44.5149 119.01 44.5149C119.645 44.5149 120.191 44.6651 120.648 44.9656C121.109 45.266 121.464 45.6786 121.714 46.2034C121.964 46.7281 122.089 47.3311 122.089 48.0124V48.1521C122.089 48.8334 121.964 49.4386 121.714 49.9675C121.464 50.4923 121.111 50.9027 120.654 51.199C120.197 51.4952 119.653 51.6433 119.023 51.6433ZM119.023 50.6658C119.42 50.6658 119.753 50.5579 120.019 50.342C120.29 50.122 120.493 49.8236 120.629 49.447C120.768 49.0662 120.838 48.6345 120.838 48.1521V48.0124C120.838 47.53 120.768 47.1005 120.629 46.7239C120.493 46.343 120.29 46.0447 120.019 45.8288C119.748 45.6088 119.412 45.4988 119.01 45.4988C118.612 45.4988 118.278 45.6088 118.007 45.8288C117.736 46.0447 117.533 46.343 117.398 46.7239C117.262 47.1005 117.194 47.53 117.194 48.0124V48.1521C117.194 48.6345 117.262 49.0662 117.398 49.447C117.533 49.8236 117.736 50.122 118.007 50.342C118.282 50.5579 118.621 50.6658 119.023 50.6658Z" fill="#1C2143"/>
<path id="Vector_34" d="M108.371 51.51V50.7102L109.406 50.5325V45.6257L108.371 45.448V44.6418H111.691V45.448L110.656 45.6257V47.5427H111.317L112.751 45.6194C113.009 45.2597 113.261 44.9867 113.506 44.8005C113.756 44.6143 114.035 44.5212 114.344 44.5212C114.539 44.5212 114.7 44.5466 114.827 44.5974C114.954 44.644 115.098 44.718 115.258 44.8196L115.081 45.6702C114.899 45.6405 114.793 45.6236 114.763 45.6194C114.738 45.6151 114.683 45.613 114.598 45.613C114.442 45.613 114.287 45.6702 114.135 45.7844C113.987 45.8987 113.856 46.0341 113.741 46.1907L112.415 47.9109L114.579 50.5515L115.462 50.7102V51.51H113.792L111.469 48.5964H110.656V50.5325L111.691 50.7102V51.51H108.371Z" fill="#1C2143"/>
<path id="Vector_35" d="M102.804 53.4841L102.1 53.0144C102.299 52.7097 102.449 52.3987 102.55 52.0813C102.652 51.7639 102.703 51.4275 102.703 51.072V50.1072H103.953V51.053C103.953 51.4677 103.85 51.9014 103.642 52.3542C103.435 52.807 103.156 53.1837 102.804 53.4841Z" fill="#1C2143"/>
<path id="Vector_36" d="M91.6261 51.51V50.7102L92.6608 50.5325V45.6257L91.6261 45.448V44.6418H92.6608H94.2731L96.5074 49.8723H96.5455L98.7863 44.6418H100.354H101.389V45.448L100.354 45.6257V50.5325L101.389 50.7102V51.51H98.069V50.7102L99.1036 50.5325V46.7429L99.0656 46.7302L96.9581 51.51H96.0948L93.9493 46.6287L93.9113 46.6413V50.5325L94.9459 50.7102V51.51H91.6261Z" fill="#1C2143"/>
<path id="Vector_37" d="M87.2843 51.6433C86.6495 51.6433 86.1015 51.4952 85.6403 51.199C85.1832 50.8985 84.8299 50.4859 84.5802 49.9612C84.3305 49.4322 84.2057 48.8292 84.2057 48.1521V48.0124C84.2057 47.3354 84.3305 46.7344 84.5802 46.2097C84.8299 45.6807 85.1832 45.266 85.6403 44.9656C86.1015 44.6651 86.6453 44.5149 87.2716 44.5149C87.9064 44.5149 88.4523 44.6651 88.9093 44.9656C89.3706 45.266 89.726 45.6786 89.9757 46.2034C90.2254 46.7281 90.3502 47.3311 90.3502 48.0124V48.1521C90.3502 48.8334 90.2254 49.4386 89.9757 49.9675C89.726 50.4923 89.3727 50.9027 88.9156 51.199C88.4586 51.4952 87.9148 51.6433 87.2843 51.6433ZM87.2843 50.6658C87.6821 50.6658 88.0143 50.5579 88.2809 50.342C88.5517 50.122 88.7548 49.8236 88.8903 49.447C89.0299 49.0662 89.0997 48.6345 89.0997 48.1521V48.0124C89.0997 47.53 89.0299 47.1005 88.8903 46.7239C88.7548 46.343 88.5517 46.0447 88.2809 45.8288C88.0101 45.6088 87.6736 45.4988 87.2716 45.4988C86.8738 45.4988 86.5395 45.6088 86.2687 45.8288C85.9978 46.0447 85.7947 46.343 85.6593 46.7239C85.5239 47.1005 85.4562 47.53 85.4562 48.0124V48.1521C85.4562 48.6345 85.5239 49.0662 85.6593 49.447C85.7947 49.8236 85.9978 50.122 86.2687 50.342C86.5437 50.5579 86.8823 50.6658 87.2843 50.6658Z" fill="#1C2143"/>
<path id="Vector_38" d="M75.9728 53.5286L75.8522 50.5325H76.3917C76.5695 50.3293 76.7239 50.1283 76.8551 49.9294C76.9905 49.7263 77.1048 49.5041 77.1979 49.2629C77.2952 49.0175 77.3735 48.7318 77.4327 48.406C77.4962 48.0759 77.5428 47.6824 77.5724 47.2253L77.6359 45.6194L76.6393 45.448V44.6418H82.1617H83.1964V45.448L82.1617 45.6257V50.5325H83.0758L82.9489 53.5286H81.8253V51.51H77.0963V53.5286H75.9728ZM77.8326 50.5325H80.9113V45.7527H78.88L78.8229 47.2253C78.7763 47.9871 78.6663 48.6366 78.4928 49.1741C78.3235 49.7115 78.1035 50.1643 77.8326 50.5325Z" fill="#1C2143"/>
<path id="Vector_39" d="M67.5812 51.51V50.7102L68.4825 50.5769L69.6569 48.6599C69.221 48.5033 68.8846 48.2558 68.6476 47.9172C68.4148 47.5787 68.2985 47.1872 68.2985 46.7429C68.2985 46.3282 68.4043 45.9643 68.6158 45.6511C68.8274 45.3337 69.13 45.0862 69.5236 44.9084C69.9213 44.7307 70.3911 44.6418 70.9327 44.6418H74.8683V45.448L73.8336 45.6257V50.5325L74.8683 50.7102V51.51H71.5485V50.7102L72.5831 50.5325V48.844H70.8883L69.2633 51.51H67.5812ZM70.8058 47.8601H72.5831V45.613H70.9327C70.4799 45.613 70.1372 45.7273 69.9044 45.9558C69.6717 46.1801 69.5553 46.4467 69.5553 46.7556C69.5553 47.0603 69.659 47.3205 69.8663 47.5364C70.0779 47.7522 70.3911 47.8601 70.8058 47.8601Z" fill="#1C2143"/>
<path id="Vector_40" d="M59.5768 54.1506V53.3445L60.548 53.1667V45.6257L59.5133 45.448V44.6418H61.6207L61.735 45.4797C61.9635 45.1666 62.2407 44.9275 62.5665 44.7624C62.8966 44.5974 63.2775 44.5149 63.7091 44.5149C64.2762 44.5149 64.7607 44.6693 65.1627 44.9783C65.5647 45.283 65.8715 45.7125 66.0831 46.2668C66.2947 46.817 66.4005 47.4623 66.4005 48.2029V48.3362C66.4005 48.9963 66.2926 49.574 66.0768 50.0691C65.8652 50.5642 65.5605 50.9514 65.1627 51.2307C64.7649 51.5058 64.2867 51.6433 63.7281 51.6433C63.305 51.6433 62.9326 51.5735 62.611 51.4338C62.2936 51.2899 62.0227 51.0784 61.7985 50.7991V53.1667L62.8903 53.3445V54.1506H59.5768ZM63.3409 50.6658C63.9334 50.6658 64.382 50.4499 64.6866 50.0183C64.9913 49.5867 65.1437 49.026 65.1437 48.3362V48.2029C65.1437 47.6781 65.076 47.2169 64.9406 46.8191C64.8051 46.4171 64.602 46.1018 64.3312 45.8733C64.0646 45.6448 63.7303 45.5305 63.3282 45.5305C62.9728 45.5305 62.6681 45.6109 62.4142 45.7717C62.1603 45.9325 61.955 46.1526 61.7985 46.4319V49.7771C61.955 50.0606 62.1582 50.2807 62.4078 50.4372C62.6617 50.5896 62.9728 50.6658 63.3409 50.6658Z" fill="#1C2143"/>
<path id="Vector_41" d="M45.6818 51.51V50.7102L46.7164 50.5325V45.6257L45.6818 45.448V44.6418H49.0016V45.448L47.9669 45.6257V47.0032H49.6681C50.4806 47.0032 51.1132 47.2105 51.566 47.6252C52.0188 48.0357 52.2452 48.571 52.2452 49.2312C52.2452 49.8956 52.0167 50.4415 51.5597 50.8689C51.1069 51.2963 50.4764 51.51 49.6681 51.51H45.6818ZM47.9669 50.5325H49.6681C50.1209 50.5325 50.4531 50.414 50.6647 50.177C50.8805 49.9358 50.9884 49.6353 50.9884 49.2756C50.9884 48.9286 50.8805 48.6261 50.6647 48.3679C50.4489 48.1098 50.1167 47.9807 49.6681 47.9807H47.9669V50.5325ZM52.3849 51.51V50.7102L53.4196 50.5325V45.6257L52.3849 45.448V44.6418H54.67V50.5325L55.7047 50.7102V51.51H52.3849Z" fill="#1C2143"/>
<path id="Vector_42" d="M33.0817 51.51V50.7102L34.1163 50.5325V43.2517L33.0817 43.074V42.2678H34.1163H35.7858L38.7628 49.282H38.8009L41.6827 42.2678H44.4694V43.074L43.4347 43.2517V50.5325L44.4694 50.7102V51.51H41.1495V50.7102L42.2413 50.5325V47.8538V43.9753L42.2096 43.969L39.2072 51.1799H38.3756L35.2716 43.9817L35.2399 43.988L35.2843 47.8538V50.5325L36.4015 50.7102V51.51H33.0817Z" fill="#1C2143"/>
</g>
</g>
<defs>
<clipPath id="clip0_6_2">
<rect width="253" height="55" fill="white"/>
</clipPath>
</defs>
</svg>
